<svg id="Layer_1" data-name="Layer 1" xmlns="http://www.w3.org/2000/svg" viewBox="0 0 377.11 311.99"><defs><style>.cls-1{fill:#fff;}</style></defs><title>logo</title><g id="g3097"><g id="g3103"><path id="path3105" class="cls-1" d="M161,50.66c-1.77,3.39-3.29,5.37-3,8s3,4.49,4.27,7.11c1.18-3.06,3.15-5.36,2.92-7.76s-3.54-5.57-4.14-7.32"/></g><g id="g3107"><path id="path3109" class="cls-1" d="M206.45,50.66c1.76,3.39,3.29,5.37,3.05,8s-3,4.49-4.28,7.11c-1.18-3.06-3.13-5.36-2.91-7.76s3.54-5.57,4.14-7.32"/></g><g id="g3111"><path id="path3113" class="cls-1" d="M134.87,48.69a3.07,3.07,0,1,0-3.07-3.07,3.06,3.06,0,0,0,3.07,3.07"/></g><g id="g3115"><path id="path3117" class="cls-1" d="M136.92,53.08a3.07,3.07,0,1,0-3.08,3.08,3.07,3.07,0,0,0,3.08-3.08"/></g><g id="g3119"><path id="path3121" class="cls-1" d="M138.42,60.53a3.07,3.07,0,1,0-3.07,3.06,3.08,3.08,0,0,0,3.07-3.06"/></g><g id="g3123"><path id="path3125" class="cls-1" d="M151.86,34A3.07,3.07,0,1,0,148.79,31,3.06,3.06,0,0,0,151.86,34"/></g><g id="g3127"><path id="path3129" class="cls-1" d="M144.23,36.4a3.08,3.08,0,1,0-3.07-3.08,3.07,3.07,0,0,0,3.07,3.08"/></g><g id="g3131"><path id="path3133" class="cls-1" d="M138.23,41.66a3.07,3.07,0,1,0-3.07-3.06,3.06,3.06,0,0,0,3.07,3.06"/></g><g id="g3135"><path id="path3137" class="cls-1" d="M159.87,34.78a3.07,3.07,0,1,0-3.07-3.08,3.07,3.07,0,0,0,3.07,3.08"/></g><g id="g3139"><path id="path3141" class="cls-1" d="M167.49,37a3.07,3.07,0,1,0-3.08-3.09A3.07,3.07,0,0,0,167.49,37"/></g><g id="g3143"><path id="path3145" class="cls-1" d="M174.65,40.35a3.08,3.08,0,1,0-3.07-3.08,3.07,3.07,0,0,0,3.07,3.08"/></g><g id="g3147"><path id="path3149" class="cls-1" d="M229.42,45.62a3.07,3.07,0,1,0,3.07-3.08,3.08,3.08,0,0,0-3.07,3.08"/></g><g id="g3151"><path id="path3153" class="cls-1" d="M233.51,50a3.08,3.08,0,1,0,3.08,3.07A3.06,3.06,0,0,0,233.51,50"/></g><g id="g3155"><path id="path3157" class="cls-1" d="M232,57.46a3.07,3.07,0,1,0,3.09,3.07A3.06,3.06,0,0,0,232,57.46"/></g><g id="g3159"><path id="path3161" class="cls-1" d="M215.5,34A3.07,3.07,0,1,0,212.43,31,3.08,3.08,0,0,0,215.5,34"/></g><g id="g3163"><path id="path3165" class="cls-1" d="M223.13,36.4a3.08,3.08,0,1,0-3.07-3.08,3.07,3.07,0,0,0,3.07,3.08"/></g><g id="g3167"><path id="path3169" class="cls-1" d="M229.13,41.66a3.07,3.07,0,1,0-3.07-3.06,3.07,3.07,0,0,0,3.07,3.06"/></g><g id="g3171"><path id="path3173" class="cls-1" d="M207.48,34.78a3.07,3.07,0,1,0-3.07-3.08,3.06,3.06,0,0,0,3.07,3.08"/></g><g id="g3175"><path id="path3177" class="cls-1" d="M199.88,37a3.07,3.07,0,1,0-3.07-3.09A3.07,3.07,0,0,0,199.88,37"/></g><g id="g3179"><path id="path3181" class="cls-1" d="M189.65,37.27a3.07,3.07,0,1,0,3.07-3.08,3.07,3.07,0,0,0-3.07,3.08"/></g><g id="g3183"><path id="path3185" class="cls-1" d="M178.44,53.9h3.43V40.74a12,12,0,0,1-3.43-1.07Z"/></g><g id="g3187"><path id="path3189" class="cls-1" d="M188.93,39.67a12.19,12.19,0,0,1-3.44,1.07V53.9h3.44Z"/></g><g id="g3191"><path id="path3193" class="cls-1" d="M181.71,25.15V17.34a9.65,9.65,0,0,0-7.55,7.81Z"/></g><g id="g3195"><path id="path3197" class="cls-1" d="M185.7,25.15h7.48a9.65,9.65,0,0,0-7.48-7.81Z"/></g><g id="g3199"><path id="path3201" class="cls-1" d="M174.26,28.91a9.65,9.65,0,0,0,18.84,0Z"/></g><g id="g3203"><path id="path3205" class="cls-1" d="M189,16.11a10.67,10.67,0,0,1-4.19-6.81,12.3,12.3,0,0,1,7,4.44V3.15a12.23,12.23,0,0,1-7,4.44c.28-2.57,1.87-4.91,4-7.59H178.57c2.15,2.68,3.73,5,4,7.59a12.2,12.2,0,0,1-7-4.44V13.74a12.27,12.27,0,0,1,7-4.44,10.63,10.63,0,0,1-4.19,6.81Z"/></g><g id="g3207"><path id="path3209" class="cls-1" d="M200.26,227.24a197.48,197.48,0,0,1-31.91-11.46v-.13a8.4,8.4,0,0,0-2.19-6.53,8.21,8.21,0,0,0-6.09-3,8.8,8.8,0,0,0-2.93.56,49.32,49.32,0,0,1-4.45-4.56,53.16,53.16,0,0,1-9.47-16.49,58.43,58.43,0,0,1-2.79-10.95c-.51,3.13-4,7.28-10.07,7.35.09-.65,0-2.22-.54-2.38-1.58,1.76-4,3.67-9.44,1.74A80.92,80.92,0,0,0,123.94,194a74.2,74.2,0,0,0,13.88,23.32,68.35,68.35,0,0,0,6.19,6.2,10.48,10.48,0,0,0-.07,1.25c0,2.27,2.18,5.87,5.33,7.4a7.39,7.39,0,0,0,7.87-.9,86.52,86.52,0,0,0,17.12,6.65A77.46,77.46,0,0,0,194,241c4.71,0,10.94-2.24,17.08-6.1a43.87,43.87,0,0,0,6.46-4.9l.67-.63c-4.78.68-12-.68-17.9-2.14m-35.38-14.55-1-.77c-1.87-1.41-3.46-1.39-5.14.06a19.8,19.8,0,0,0-2.23,2.34l-1,1.21.7.57c2,1.58,2.28,3.32,1.71,4.33a1.64,1.64,0,0,1-1,.79,5.31,5.31,0,0,1-3.79-.95l-.75-.44-.45.75-.37.53c-.17.25-.34.5-.52.81a7.53,7.53,0,0,0-1.25,3.53,2.48,2.48,0,0,0,.1.73,3.4,3.4,0,0,0,1.93,2l.48.28c.89.57,2.13,1.31,3.07,1.84a5.39,5.39,0,0,1-5.27.22c-2.65-1.29-4.34-4.32-4.34-5.81a16.38,16.38,0,0,1,2.91-8.18l.29-.44-.28-.47a19.07,19.07,0,0,1-1.35-2.66,29.88,29.88,0,0,1,3,.56l.5.1.35-.36c1.16-1.27,5.23-5.38,9-5.38a6.43,6.43,0,0,1,4.76,2.39A7.22,7.22,0,0,1,166.6,214c-.52-.36-1.13-.82-1.72-1.28m6.25,18.4a4.14,4.14,0,1,1,4.13-4.13,4.14,4.14,0,0,1-4.13,4.13m18.11,5.61a3.79,3.79,0,1,1,3.78-3.79,3.79,3.79,0,0,1-3.78,3.79"/></g><g id="g3211"><path id="path3213" class="cls-1" d="M194.23,255.8a7.1,7.1,0,0,0-1.94.27V244.5a80.24,80.24,0,0,1-16.9-2.54v14.15a6.52,6.52,0,0,0-2-.31,6.59,6.59,0,0,0-6.57,6.58c0,3,1.75,5.73,3.27,7.46.76-1.81,1.45-3.27,2.46-3.27,2,0,1.09,10,7,10.32a4.42,4.42,0,0,0-.3,1.6,4.6,4.6,0,1,0,9.2,0,4.42,4.42,0,0,0-.29-1.6c5.89-.27,4.9-10.32,6.93-10.32,1,0,1.63,1.38,2.52,3.27,1.52-1.73,3.27-4.48,3.27-7.46a6.58,6.58,0,0,0-6.58-6.58m-10.44,25.26a2.57,2.57,0,1,1,2.57-2.57,2.58,2.58,0,0,1-2.57,2.57m13.77-14.59a3.36,3.36,0,0,0-2.6-2c-3.94,0-2.4,10.42-7.1,10.42a2.84,2.84,0,0,1-3.15-2.79c0-1.46,1-1.9,1-3.08s-.92-1.6-1.94-1.6-1.95.43-1.95,1.6,1,1.62,1,3.08a2.85,2.85,0,0,1-3.16,2.79c-4.69,0-3.14-10.42-7.09-10.42a3.32,3.32,0,0,0-2.59,2,9.34,9.34,0,0,1-1.23-4.09,4.54,4.54,0,0,1,4.54-4.54c5.27,0,4,7.19,6.56,7.19a1.76,1.76,0,0,0,1.94-1.76c0-2.06-3.66-4-3.66-6.94s2.67-5.39,5.61-7.75c2.93,2.36,5.61,4.83,5.61,7.75s-3.67,4.88-3.67,6.94a1.76,1.76,0,0,0,1.94,1.76c2.52,0,1.29-7.19,6.56-7.19a4.54,4.54,0,0,1,4.55,4.54,9.59,9.59,0,0,1-1.22,4.09"/></g><g id="g3215"><path id="path3217" class="cls-1" d="M330,269.72a1.21,1.21,0,0,0-1.5-.74c-13.55,3.94-30.34-7.27-46.59-18.12-13.67-9.11-26.58-17.73-37.64-17.73a22.5,22.5,0,0,0-10.87,2.57,19.48,19.48,0,0,0-8.6,10,62,62,0,0,1-5.4,10.11c-1.88,3-3.25,5.12-3.25,7.8a8.43,8.43,0,0,0,2.82,6.05,29.81,29.81,0,0,0,7.1,4.87c.7.36,1.39.69,2.07,1,2.69,1.31,4.35,2.2,4.67,3.71A90.16,90.16,0,0,1,212.64,285a179.57,179.57,0,0,1-57.79,0,89.19,89.19,0,0,1-20.18-5.73c.21-2.26,1.87-3.15,4.81-4.55.69-.32,1.39-.65,2.1-1a37.42,37.42,0,0,0,7-4.36,7.3,7.3,0,0,0,2.79-5.69c0-2.67-1.36-4.8-3.22-7.8a60.81,60.81,0,0,1-5.4-10.11,19.39,19.39,0,0,0-8.62-10,22.41,22.41,0,0,0-10.84-2.58c-11.08,0-24,8.61-37.66,17.74C69.35,261.72,52.55,272.93,39,269a1.23,1.23,0,0,0-1.51.76,1.26,1.26,0,0,0,.66,1.56c4.12,1.82,7.76,4.66,11.27,7.39,4.87,3.81,9.49,7.41,14.57,7.41,4.8,0,10-1.53,16.25-4.82a172.43,172.43,0,0,0,16.58-10.44c10.7-7.32,21.75-14.88,32.24-15.71-1.1,1.14-2.17,2.09-3.17,3-3.09,2.77-5.77,5.16-5.77,10,0,3.82,1.32,6.54,3.12,10.33.53,1.09,1.13,2.35,1.76,3.75a39.29,39.29,0,0,1,2.36,7.55c.3,1.24.64,2.62,1.08,4.27.67,2.49,1.91,7.16,9.6,11.07,8.92,4.55,24.29,6.86,45.69,6.86s36.76-2.31,45.68-6.86c7.69-3.91,8.94-8.58,9.6-11.07.45-1.65.78-3,1.08-4.27a39.31,39.31,0,0,1,2.37-7.55c.85-1.89,1.67-3.45,2.41-4.82,1.6-3,2.87-5.4,2.87-8.86,0-4.88-2.82-7.4-6.07-10.33-1-.92-2.14-2-3.27-3.11,10.5.84,21.54,8.38,32.25,15.72a178.4,178.4,0,0,0,16.57,10.44c6.28,3.29,11.46,4.81,16.27,4.81,5.07,0,9.68-3.6,14.57-7.42,3.5-2.71,7.13-5.55,11.24-7.39a1.24,1.24,0,0,0,.67-1.56"/></g><g id="g3219"><path id="path3221" class="cls-1" d="M248.65,161.23a17.71,17.71,0,0,1-5.2-6.06c-1.61-3.34-8.32-16.56-9.38-18.33a8,8,0,0,1-1.31-4,5.88,5.88,0,0,1,1.43-3.5c.53-.67,2-2.09,2.54-3a10,10,0,0,1,1.19-1.57,63.4,63.4,0,0,0-8.17-11,66.41,66.41,0,0,0-13.12-11.38c2.57-1.67,5.18-4.09,5.18-8.13a7.4,7.4,0,0,0-2.7-5.75c2.71-8.69,7.57-19.14,11.7-23.73l-8.7-3.67A13.67,13.67,0,0,1,224,71a11.15,11.15,0,0,1-4.84-6.59,38.7,38.7,0,0,1-3.2,9.46c2.51-1.18,4.53-1.72,7.08-.66a10.32,10.32,0,0,1-10.94,3.66c-3.09-.74-6.17-2.38-6-4.78a2.93,2.93,0,0,1,3.07-3c1.89.2,2,3.08,1.41,4.37,2.49-1.41,5.07-8.7,1.18-9.79-3.06-.84-5.86,3.36-6.86,6.58-.59-3.89-2.19-7.61-5.28-7.4-4,.27-2.7,7.66-1.3,9.55.24-2.6,1.67-4,2.85-3.89s2.47.83,2.23,3.19-3.6,3.81-7.45,3.81c-3.68,0-10.13-1.13-10.74-8.24,2.38.44,6.13,2.25,7.73,4.63a46.14,46.14,0,0,1,0-11.8,12.12,12.12,0,0,1-7.62,4.63c.67-3,3.28-6.25,6.33-8.16h-15.8c3,1.91,5.65,5.11,6.33,8.14a12,12,0,0,1-7.5-4.61,46.6,46.6,0,0,1,0,11.8c1.56-2.35,5.21-4.14,7.6-4.6-.61,7.08-7.07,8.21-10.73,8.21-3.85,0-7.2-1.45-7.46-3.81s1.19-3.11,2.25-3.19,2.59,1.29,2.84,3.89c1.39-1.89,2.69-9.28-1.31-9.55-3.08-.21-4.69,3.51-5.27,7.4-1-3.22-3.8-7.42-6.86-6.58-3.89,1.09-1.31,8.38,1.18,9.79-.6-1.29-.48-4.17,1.41-4.37a2.93,2.93,0,0,1,3.06,3c.14,2.4-2.94,4-6,4.78a10.34,10.34,0,0,1-10.91-3.62c2.59-1.11,4.63-.57,7.18.62a38.28,38.28,0,0,1-3.2-9.46,11.26,11.26,0,0,1-5,6.65,13.6,13.6,0,0,1,1.91-9.88l-8.7,3.67c4.15,4.6,9,15.1,11.72,23.81a7.29,7.29,0,0,0-2.6,5.67c0,4,2.59,6.47,5.17,8.13a65.85,65.85,0,0,0-13.12,11.38A73.12,73.12,0,0,0,123.94,137c1.2,1.23,6.4,6.92,7.63,8.46,2.17,2.73,3.44,5.48,3.51,7.61a11.39,11.39,0,0,0,3.06,8.14,14.63,14.63,0,0,1,1.69,5.83H183v47.08a6.52,6.52,0,0,0-5,2.34c5,2,9.74,3.82,14.52,5.32.44-3.1,1.07-5,2.62-6.89,0,0-6.27-.63-9.64-.81V167h42.21a59.67,59.67,0,0,1-3.43,18.63,53.18,53.18,0,0,1-9.48,16.49,43.67,43.67,0,0,1-14,11.08c-.84.42-.82,1-1.67,1.37a12,12,0,0,0-2.08,3.82,16.88,16.88,0,0,0-1,4.29c2,.61,3.06.93,4.95,1.39,14.83,3.73,18.5,2.63,19.33,2l0,0a66.76,66.76,0,0,0,9.32-8.76A74.18,74.18,0,0,0,243.63,194a81.24,81.24,0,0,0,5.08-28.53c0-1.8,0-2.4-.06-4.19M183,164.47H139.77a59.55,59.55,0,0,1,3.46-19.34,53.27,53.27,0,0,1,9.47-16.49,44.42,44.42,0,0,1,14-11.08,38,38,0,0,1,16.31-4Zm.75-72.07c-14.4,0-24.32,4.25-30.1,8.11-3.35-2-4.78-3.92-4.78-6.22,0-8.19,23.13-8.92,34.87-8.92h0c11.74,0,34.89.73,34.89,8.92,0,2.3-1.45,4.24-4.81,6.22-5.77-3.86-15.69-8.11-30.09-8.11m1.79,72.07V113.62a38.2,38.2,0,0,1,15.29,3.94,44.09,44.09,0,0,1,14,11.08,53.3,53.3,0,0,1,9.48,16.49,59.54,59.54,0,0,1,3.45,19.34Z"/></g><g id="g3223"><path id="path3225" class="cls-1" d="M221.1,156.17a.82.82,0,0,1-.45,1.55,48.21,48.21,0,0,0-8.12-21.46,1.36,1.36,0,0,0,.12-.12,2.71,2.71,0,0,0,1.8-2.22,2.78,2.78,0,0,0-2.72,1.2c-.3-.4-.61-.79-.93-1.2a40.48,40.48,0,0,0-9.15-8.58,33.91,33.91,0,0,0-10.17-4.66.81.81,0,0,1,1.55-.23c.13-1.34-1-2-1.69-1.75a1.16,1.16,0,0,0-.76,1,2.77,2.77,0,0,0-1.92-1,2.84,2.84,0,0,0,.61,2,1.2,1.2,0,0,0-1.13.55,1.5,1.5,0,0,0,1.47,2,.81.81,0,0,1,.44-1.5v16.54a2.72,2.72,0,0,0-2.74.71,2.69,2.69,0,0,0,2.74.71v18a.82.82,0,0,1-.4-1.54c-1.36,0-1.93,1.21-1.62,1.84a1.22,1.22,0,0,0,1.36.65,2.87,2.87,0,0,0-.72,1.9,2.72,2.72,0,0,0,1.89-.73,1.25,1.25,0,0,0,.67,1.37,1.48,1.48,0,0,0,1.83-1.6.82.82,0,0,1-1.54-.35H204a2.75,2.75,0,0,0,.71,2.72,2.72,2.72,0,0,0,.72-2.72h13.88a.82.82,0,0,1-1.52.43,1.5,1.5,0,0,0,1.88,1.56,1.25,1.25,0,0,0,.63-1.39,2.8,2.8,0,0,0,1.9.67,2.8,2.8,0,0,0-.77-1.87,1.27,1.27,0,0,0,1.36-.68,1.49,1.49,0,0,0-1.66-1.81m-11.94-21.9a1.2,1.2,0,0,0-.42,1.19,1.25,1.25,0,0,0,1.27.84,2.84,2.84,0,0,0-1,1.77,2.79,2.79,0,0,0,2-.45,1.22,1.22,0,0,0,.45,1.43,1.13,1.13,0,0,0,1.13,0,46.5,46.5,0,0,1,6.33,17.15,2.78,2.78,0,0,0-1.57-.44,2.78,2.78,0,0,0,.85,2H207.64a1.28,1.28,0,0,0-.71-1.4,1.23,1.23,0,0,0-1.42.5,2.83,2.83,0,0,0-.83-1.85,2.78,2.78,0,0,0-.81,1.85,1.25,1.25,0,0,0-1.44-.5,1.33,1.33,0,0,0-.7,1.4h-9a2.75,2.75,0,0,0,.64-1.79,2.76,2.76,0,0,0-1.81.67V142a1.28,1.28,0,0,0,1.45-.69,1.24,1.24,0,0,0-.51-1.43,2.77,2.77,0,0,0,1.86-.83,2.76,2.76,0,0,0-1.86-.82,1.25,1.25,0,0,0,.51-1.44,1.3,1.3,0,0,0-1.45-.69V123.73a2.85,2.85,0,0,0,1.56.64,2.79,2.79,0,0,0-.43-1.76,32.3,32.3,0,0,1,8.14,4,38.92,38.92,0,0,1,8.34,7.68"/></g><g id="g3227"><path id="path3229" class="cls-1" d="M213.7,151.61a2.27,2.27,0,0,0,1.16-1.07,1.32,1.32,0,0,1-1.19-.15c.42-.24.92,0,.42-.76s-.82-.8-1.34-.24-3.86-.14-3.84-2.66a2.31,2.31,0,0,0,1.15,1c.14.08.27.13.41.2l.43.08a2.41,2.41,0,0,0,1,.14H212V148a1.51,1.51,0,0,0,1.31-1.31c.12-1.39-1.19-2-2.64-3.25-.58-.48-1-.88-1.36-1.24-.5-1-.16-1.89-1.42-3.71a7.7,7.7,0,0,0-.42-1.61,4.61,4.61,0,0,0,.78,5.33c1.4,1.55,4.4,3,4.28,4.34a.86.86,0,0,1-.77.67c-.13,0-.27,0-.41-.05a1.41,1.41,0,0,1-.27-.09,2.4,2.4,0,0,1-.64-.29,5.29,5.29,0,0,1-1-.81,34.09,34.09,0,0,1-3.1-3.81c-1.4-1.78-.76-3.49-.55-5,1-1.34-.59-4.12-1.52-4.79a2.53,2.53,0,0,0-.06-1.43,1.44,1.44,0,0,1-.85.1c-.25-.51-.36-.62-.7-.68-.6-.09-.59-.43-.65-.66-.35.31-.47.61-.83.64s-.7,0-.9.17a1.27,1.27,0,0,1-1,.37c-.56,0-.56.32-.51.72s.07.66.41.81l.17.08.46.53.29-.57c.24-.23,1-.28,1.12.24.1.35.17.48-.29.52s-.76.07-1.22.1-.31.42-.3.68.39.49,1,.32,1.85-.29,1.85.28c0,1.5-1.7,1.45-2.09,3.23a3.22,3.22,0,0,1-1.05-1,6.61,6.61,0,0,0-1.26-1.56,6.76,6.76,0,0,0-1.29-1.06c-.59-.36-.62-.65-.62-1.26s.24-1,.22-1.51a2.22,2.22,0,0,0-.14-.46.85.85,0,0,0-.81-.52.76.76,0,0,1,.33.53,1.4,1.4,0,0,0-.25.29.35.35,0,0,0,0,.52s0,.06,0,.11a1.38,1.38,0,0,1,0,.25c0,.09-.05.05-.07,0-.15-.37-.3-.92-.66-1h-.24a.09.09,0,0,0,0-.07c0-.38-.44-.69-.9-.23.11,0,.29,0,.36.15a2.48,2.48,0,0,0-.1.4c0,.38.26.57.7.57.07,0,.11,0,.12.07s0,.12.06.17,0,.06-.07.05c-.7-.31-1,0-1,.31a1.13,1.13,0,0,0,0,.29c-.25.15-.3.53.14.81,0-.13,0-.36.14-.43a.19.19,0,0,0,.11,0,.59.59,0,0,0,.19.18s.17,0,.38-.14a.14.14,0,0,1,.17,0,1,1,0,0,0,.21.14.06.06,0,0,1,0,.1c-.43.44-.35.83.17,1a.56.56,0,0,1-1-.42c-.57.94.39,1.6,1.19,1.27,0,.32,0,1,.14,1s.05-.19.18-.19.07.05.07.11a.5.5,0,0,0,.41.53.23.23,0,0,1,.1-.29c.12.22.29.46.39.65a6.49,6.49,0,0,0,3,3.26,8.22,8.22,0,0,0-2.1,2c-.5.49-1.24,1-1.7.75-.2-.14-.25-.32-.53-.53a.79.79,0,0,0-.56-.15,1.18,1.18,0,0,0-.3.13.85.85,0,0,0-.93.27.79.79,0,0,1,.64.11,1.31,1.31,0,0,1,0,.31c0,.22.16.46,1.09.4,0,0,.16,0,.11.1a.47.47,0,0,1-.49.14c-.42-.11-.61-.44-.91-.06a1.25,1.25,0,0,1-.2.24h-.09c-.36.13-.71.83-.28,1.13a.69.69,0,0,1,.27-.56l.19.21c.27.4.57.62,1.18-.32.07-.08.08,0,.08,0,0,.43-.45,1.05.1,1.14a2.06,2.06,0,0,0,.27,0,.37.37,0,0,0,0,.11.8.8,0,0,0,1,.5.92.92,0,0,1-.58-.61c.11,0,.25,0,.27,0,.34-.34-.06-.77.1-1s.1-.06.13,0,.4.6.89.35a.78.78,0,0,0,.36-.6,2.64,2.64,0,0,1,1.64-.32c-.08-.32.29-.78,1-.95a1,1,0,0,1,1.17.22,3.11,3.11,0,0,1,.68-1.15c-.07,2.64,3.48,2.58,4.31,4.16a6.06,6.06,0,0,0-2.93-.57c-.86.17-2.37,1-2.57,2a3.72,3.72,0,0,0,1.53,2.83c-1,.19-1.39-.11-2.33.13l-.09,0c-.8.08-.92-1.34-1.88-1a1,1,0,0,0-.26.18h0c-.37,0-.89.46-.8.84a1,1,0,0,1,.61-.35c0,.09,0,.2,0,.2,0,.15,0,.32.35.32s.26-.1.38-.1a.11.11,0,0,1,.11.12c0,.37-1.19-.21-1,.8a2,2,0,0,0,.19.29c0,.3.21.62.74.44-.11-.07-.3-.21-.25-.37l.23,0c.06,0,.1,0,.13-.16s0,0,.06,0,.11.06.11.1-.07.11-.07.22a1.78,1.78,0,0,0,.08.31c0,.37.48.75,1,.37-.14,0-.48-.08-.51-.27a.78.78,0,0,0,.25-.1.48.48,0,0,0,.11-.34c0-.11,0-.11.1-.11l.26,0c.11,0,.13,0,.15.09a.63.63,0,0,0,.75.3.44.44,0,0,0,.31-.26,2.53,2.53,0,0,1,.44.26c-.11-.38.16-.69,1-.14l.6-.46s.78.33,1.08,0c.5-.44.23-.46.23-.87-.35-.8-.54-.73-.71-1.48-.26-1.32,1.56-2.07,2.62-1.85a6,6,0,0,0,3.33,3.69c1.22.42,1.71-.91,2.11-.73.08,0,.15.16.22.37a6.1,6.1,0,0,1-.14,1.42c-.13.29-.78,0-1.23,0a.49.49,0,0,0-.46.2.92.92,0,0,0-.8.83,1.44,1.44,0,0,1,.69-.36c0,.06,0,.14,0,.17a.56.56,0,0,0,1,.34c0-.07.18,0,.1.07-.29.22-.84.72-.38.92,0,0,.16.08.26.11a.63.63,0,0,0,.48.69c-.09-.17-.12-.27,0-.62h.25c.34,0,.2-.63.56-.82,0-.05.09,0,.07,0-.13.37-.19.82.14.93l.27.06a.63.63,0,0,0,.94.26c-.11,0-.36-.16-.43-.31a2.12,2.12,0,0,0,.24-.32c.25-.8-.46-.81-.46-1.14s.8-.14.8-.91a.53.53,0,0,0,0-.12c.38-.21.76-.45.79-.75a2.23,2.23,0,0,1-1-.19Z"/></g><g id="g3231"><path id="path3233" class="cls-1" d="M178.12,175.45l-.74,0,0-.69a3.94,3.94,0,0,0-4.14-4.43c-2.42,0-7.11,3.15-13.68,3.15a18.25,18.25,0,0,1-8.2-2.57l-.82,2a.65.65,0,0,0,0-.2,1.63,1.63,0,1,0-.36,1l-.82,1.95c.27.13.56.25.86.36-.95,10,6.4,22.67,19.4,26.53,1.93-.52,3.9-.23,3.9,1.88a1.63,1.63,0,0,1-1.82,1.86c-.78,0-1.27-.45-1.27-1,0-.86,1.52-.34,1.68-.95.2-.8-.32-1.16-1.21-1.16a2.17,2.17,0,0,0-2.27,2.11,2.82,2.82,0,0,0,3,2.85c1.44,0,4.48-.81,4.06-4.37.69,0,1.48-.08,1.65-.75l.15-2-.7-.1.54-22.82.51,0a1.36,1.36,0,0,0,1.63-1.23,1.34,1.34,0,0,0-1.35-1.41m-23.51,1.78L170.41,200c-8.47-3.29-16.86-10.89-15.8-22.75m16.27,20.58-14.4-20.73c.47,0,.93,0,1.32,0A15.06,15.06,0,0,0,160,177l11.55,16.59c-.25,1.61-.5,3.07-.69,4.26m1.05-6.57-10.16-14.61a24.56,24.56,0,0,0,3.26-1l7.64,10.92c-.24,1.54-.49,3.12-.74,4.65m2.45-16.06-.58-.06a1.4,1.4,0,0,0-1.61,1.18,1.36,1.36,0,0,0,1.42,1.48l.42,0c0,.19-.05.38-.08.6-.19,1.27-.53,3.43-.92,5.91l-6.44-9.24c3-1.2,5.45-2.51,6.76-2.51,1,0,1.26.5,1,2.61"/></g><g id="g3235"><path id="path3237" class="cls-1" d="M175.36,129.5c3.08,0,4.61-1,4.61-2,0-3.42-8.47-1.3-8.47-3.39a1.26,1.26,0,0,1,.62-.93h.12c4.26-.39,4.33-3.33,7.37-3.92-3.67-.53-4.19,2.37-5.76,2.5a1.91,1.91,0,0,0,1.07-1.77c-.74,1-2.39,1.09-3.3,2.24a.68.68,0,0,0-.15.6,1.55,1.55,0,0,0-.9,1.25c0,3.24,8.6,1,8.6,3.37,0,.82-1.48,1.38-3.85,1.38-1.76,0-3-1.27-6.33-.42,0-.55,1.11-1.6.68-2.11a.74.74,0,0,0,.54-.64,1,1,0,0,0-.63-.29c.11-.16,0-.34-.16-.46s-.09-.39-.18-.46a3.52,3.52,0,0,0-.76-.51,2.29,2.29,0,0,0-.76-.21,2,2,0,0,0-.48.06c-.2,0-.41,0-.43.2a1,1,0,0,0-.6-.26,1.16,1.16,0,0,0-.09.91c-.3,0-.64.81-.93.73.11.22.21.32.29.34-.24.46-.36,1-.64,1a1.56,1.56,0,0,0,.22.26,9.18,9.18,0,0,0-.45,2h0a3.51,3.51,0,0,0-.68-.54c-.5-.29-.47-.53-.39-1s.35-.81.39-1.2c0,0,0-.29-.07-.39a.67.67,0,0,0-.66-.45.45.45,0,0,1,.21.45c-.1.08-.21.2-.24.21s-.2.28-.07.43a.07.07,0,0,1,0,.09.82.82,0,0,1-.06.2c0,.08-.05,0-.06,0-.06-.31-.15-.74-.44-.78h-.23a.14.14,0,0,0,0-.06c.05-.33-.3-.57-.78-.2a.41.41,0,0,1,.31.14,1.24,1.24,0,0,0-.15.32c-.06.31.18.44.55.47.08,0,.12,0,.12,0a.59.59,0,0,1,0,.14c0,.07,0,.06-.06,0-.59-.25-.88,0-1,.24,0,0,0,.17,0,.24-.23.13-.34.41,0,.66,0-.11,0-.31.19-.36l.09,0a.44.44,0,0,0,.13.14s.16,0,.39-.1a.14.14,0,0,1,.15,0,1.32,1.32,0,0,0,.16.12s0,0,0,.09c-.48.36-.47.72.08.82.06,0,.07,0,.06.11-.15.7-1.15.53-1-.15-.68.79.21,1.4,1,1,.06,0,.07,0,.09,0s.08.24.21.26a.19.19,0,0,1,.19-.16c.05,0,.05,0,.05.08s0,.42.29.46c0-.15,0-.28.14-.28s.33.58.78,1.07a9.92,9.92,0,0,1-1.91.57,4.31,4.31,0,0,0-1.49.07c-.49.25-1.69.71-2,.2-.11-.16-.08-.34-.22-.59a.7.7,0,0,0-.39-.31h-.29a.65.65,0,0,0-.8-.09.61.61,0,0,1,.46.3,1.11,1.11,0,0,0-.14.25c-.1.14,0,.4.72.66,0,0,.1.09,0,.13a.41.41,0,0,1-.42-.05c-.3-.24-.34-.59-.7-.37L157,132a.12.12,0,0,0-.08,0c-.33,0-.86.38-.62.76a.61.61,0,0,1,.41-.34,2.19,2.19,0,0,1,.07.23c.08.39.24.69,1,.17.09-.06.09,0,.07,0-.18.33-.71.66-.31.93a1.61,1.61,0,0,1,.19.13.13.13,0,0,0,0,.07.67.67,0,0,0,.66.75.7.7,0,0,1-.25-.66,1.87,1.87,0,0,1,.22.06c.38-.15.2-.62.41-.76.06-.05.09,0,.11,0s.11.62.57.58a.64.64,0,0,0,.59-.64c0-.06,0-.06,0-.06a.44.44,0,0,1,.23.5.62.62,0,0,0,.33-.33.68.68,0,0,1-.17.79,1.13,1.13,0,0,0,.73-.77.87.87,0,0,1,.16.26s0,0,0,0a1.54,1.54,0,0,0,.92,0s.07,0,.06.06a.51.51,0,0,0,0,.46c0-.06.13-.23.18-.23s0,.44.27.73c.09-1.15.72-.71,1.43-1.17.09-.06.1,0,.08,0a.83.83,0,0,1-.31.38c.27,0,.88-.27.88-.68,0-.08.22-.23.46-.39a.8.8,0,0,0,.82-.37c0,.12.16.45,0,.55.75,0,1.54-.8,1.83-.88,1.61-.34-1-1.5,2.3-1.31a1.76,1.76,0,0,0,1-.35c-.25.5-.26,1.49.24,1.57a2,2,0,0,1,.85.36c0,.05,0,.07,0,.08a2.17,2.17,0,0,0-.7.19c-.79.51-.8-1.16-1.63-.85,0,0-.15.12-.21.15-.33,0-.77.41-.7.74a.84.84,0,0,1,.53-.29s0,.15,0,.16,0,.26.31.26.21-.06.33-.06.08,0,.08.08c0,.32-1-.18-.83.68a1,1,0,0,0,.15.27c0,.26.19.52.65.37-.09-.07-.26-.17-.22-.31l.21,0s.08,0,.1-.15,0,0,0,0,.1,0,.1.07-.07.11-.07.18a.78.78,0,0,0,.09.27c-.05.3.41.63.86.31-.13,0-.4-.07-.44-.22a.49.49,0,0,0,.2-.08.37.37,0,0,0,.1-.31c0-.07.05-.07.09-.07l.22,0a.15.15,0,0,1,.15.05.48.48,0,0,0,.63.27c.55-.18.07-.66.53-.76a.47.47,0,0,1,.33,0c.43.1,1.08.09,1.19-.11a1.22,1.22,0,0,0-.4-1.28c-.28-.13,0-.46-.26-.86a4,4,0,0,0,1.63.4c1.19,0,.06-.18.59-.49a1.79,1.79,0,0,1,1.42-.15c.16,0,.28.09.24.27-.13.64.06.7-.07,1s-.63,0-1,0a.42.42,0,0,0-.37.15.76.76,0,0,0-.63.67,1.18,1.18,0,0,1,.54-.27c0,.05,0,.09,0,.12a.44.44,0,0,0,.77.28c0-.06.16,0,.09.06-.24.18-.67.58-.31.75a1.6,1.6,0,0,1,.2.08.57.57,0,0,0,.39.58c-.07-.14-.1-.22,0-.51h.21c.26,0,.14-.52.43-.68,0,0,.08,0,0,0-.09.31-.15.67.12.76l.22.05a.48.48,0,0,0,.71.21.8.8,0,0,1-.32-.25.87.87,0,0,0,.2-.28c.17-.63-.36-.64-.36-.9s.62-.13.62-.76a.42.42,0,0,0-.26-.39s0,0,0,0h0c.17,0,.35.05.43-.2-.45,0-.31-.36-.39-.62,0,0,0-.06,0-.1a.63.63,0,0,0,.21-.68c-.16.21-.68.46-.73,0,0,0,0-.34-.5-.26-.78.08-1.17-.33-2.66-.47-.09,0-.16-.07,0-.09m-9.43-3.45h0m2.23-.56a4.15,4.15,0,0,0,1,.4c-.46.1-.35.29-.66.27s-.42-.39-.35-.67m-.63-.33c-.12.25-.42.42-.64.21s0-.28-.23-.7a4,4,0,0,0,.87.49m-.95,2.09c.08-.17.16-.31.25-.31s.27,0,.32-.21-.11-.27-.26-.41c.18-.06.26-.11.17-.21s-.3.07-.35,0,.12-.16.18-.21.14-.06.24,0l.82.39c.1,0,.17.08.17.21s0,.22-.05.27-.08-.25-.23-.27-.12.1-.05.3c-.2-.08-.37-.16-.46,0a.31.31,0,0,0,0,.4c.08.08,0,.23,0,.41s-.3.45-.59.29a.45.45,0,0,1-.16-.65"/></g><g id="g3239"><path id="path3241" class="cls-1" d="M179.62,141c0-.94-1-1.54-4-1.54s-9.83,1.13-9.83-.56c0-.85,1.32-.78,2.92-.68a1.12,1.12,0,0,0,.66.35c3.89,1.14,8.48-.92,10.83-.25-2.77-2.11-5.09.07-8-.57,1.73,0,2.32-.48,2.41-1-1.34.88-3.9-.44-5.48.54a2.94,2.94,0,0,0-.26.2c-2.16-.05-3.87-.05-3.87,1.37,0,3,8.09,1.25,10.63,1.25s3.08.25,3.08.74c0,.72-2.53.91-4,.91-2.2,0-8.82-1.16-12.85-.36.33-.65,1.05-1.5.66-2a.93.93,0,0,0,.63-.76,1.47,1.47,0,0,0-.73-.34c.12-.19,0-.38-.2-.53s-.11-.46-.2-.53a3.38,3.38,0,0,0-.88-.59,3.48,3.48,0,0,0-.92-.26,3.36,3.36,0,0,0-.54.09c-.21,0-.47,0-.51.21a1.25,1.25,0,0,0-.69-.29,1.37,1.37,0,0,0-.1,1.07c-.37,0-.74,1-1.08.84.12.25.23.36.34.39-.29.54-.43,1.18-.78,1.19.22.3.38.42.51.45-.05.4-.06.82-.08,1.16l-.64-.23-.18,0a.48.48,0,0,1-.25-.09l.27.06-.37-.13a10.36,10.36,0,0,0-1.32-1.13c-.59-.34-.59-.63-.55-1.24s.29-1,.29-1.5l-.13-.47a.75.75,0,0,0-.78-.53.63.63,0,0,1,.3.54,2.64,2.64,0,0,0-.26.28.39.39,0,0,0,0,.53.11.11,0,0,1,0,.11.82.82,0,0,1,0,.24c0,.1-.05,0-.06,0-.12-.38-.27-.92-.59-.94a1.06,1.06,0,0,0-.26,0,.09.09,0,0,0,0-.06c0-.4-.4-.71-.88-.23.09,0,.29,0,.36.16a1.53,1.53,0,0,0-.12.4c0,.38.23.52.65.54a.12.12,0,0,1,.13.08c0,.05,0,.11,0,.18s0,.05-.07,0c-.67-.31-1,0-1,.33a1.19,1.19,0,0,0,0,.27c-.26.18-.34.54.1.83,0-.14,0-.38.17-.44l.1-.05a.75.75,0,0,0,.17.18c.06,0,.17,0,.4-.14.06,0,.11-.06.17,0a1,1,0,0,1,.19.14c.05,0,.05.08,0,.12-.48.45-.44.88.17,1,.08,0,.11.06.11.14a.57.57,0,1,1-1.13-.16c-.67,1,.4,1.72,1.25,1.23,0,0,.07,0,.09,0a.36.36,0,0,0,.26.32.2.2,0,0,1,.2-.19s0,0,0,.09c0,.23.08.5.39.54,0-.16,0-.33.12-.33s.54.66,1.21,1,1,.85,1.33.48c-.07.58.47,1.25.35,1.25a7.45,7.45,0,0,0-2.12.09c-.57.3-2,.8-2.37.23-.15-.2-.09-.38-.28-.69a.71.71,0,0,0-.46-.36l-.32,0a.86.86,0,0,0-.95-.11.65.65,0,0,1,.53.36c-.06.1-.12.26-.14.27-.12.19,0,.49.84.81,0,0,.11.1,0,.13a.42.42,0,0,1-.47-.06c-.35-.27-.4-.66-.83-.42l-.27.13-.09,0c-.38,0-1,.43-.72.89a.69.69,0,0,1,.48-.4c0,.11.07.24.09.29.08.44.28.8,1.2.18.1-.07.1,0,.07.05-.23.4-.83.77-.35,1.08,0,0,.1.09.21.16a.28.28,0,0,1-.05.08.85.85,0,0,0,.77.9,1,1,0,0,1-.28-.78l.25.06c.45-.18.25-.72.49-.87s.13,0,.13,0c0,.23.14.73.66.68a.71.71,0,0,0,.7-.74s0-.05.05,0a.49.49,0,0,1,.25.55.83.83,0,0,0,.39-.37.77.77,0,0,1-.21.91,1.33,1.33,0,0,0,.85-.89,1.17,1.17,0,0,1,.19.3.08.08,0,0,1,0-.05,2,2,0,0,0,1.05,0s.07,0,.07,0a.54.54,0,0,0,.05.52c0-.07.15-.27.21-.27s0,.52.32.84c.1-1.34.84-.82,1.67-1.36.1-.06.1,0,.07,0a.65.65,0,0,1-.35.45c.92.2,2.39-1.21,2.6-1.8a5.66,5.66,0,0,1,.88-.07c2.65.23.8-2.39,5.07-1.64a2,2,0,0,0,1-.47c-.31.55-.32,1.71.25,1.81a2.28,2.28,0,0,1,1,.43c.06.05,0,.07,0,.1a2.91,2.91,0,0,0-.81.19c-.9.62-.93-1.36-1.89-1l-.27.19c-.37,0-.89.45-.8.85a1,1,0,0,1,.62-.35,2.13,2.13,0,0,0,0,.22c0,.13,0,.3.36.3s.23-.1.36-.1.13,0,.13.11c0,.37-1.21-.22-1,.8a1.41,1.41,0,0,0,.17.3c0,.3.21.61.74.43-.1-.06-.29-.19-.25-.36l.24,0c.06,0,.11,0,.14-.17s0,0,0,0,.09,0,.09.09-.05.12-.05.21a.82.82,0,0,0,.09.32c-.06.37.48.76,1,.38-.15,0-.47-.08-.53-.26.12,0,.24-.11.26-.11a.5.5,0,0,0,.12-.37c0-.08,0-.09.09-.09h.25c.12,0,.15,0,.18.07a.57.57,0,0,0,.74.31c.64-.21.11-.78.61-.9a.81.81,0,0,1,.38,0c.51.13,1.27.11,1.4-.12a1.36,1.36,0,0,0-.49-1.48c-.31-.16,0-.55-.27-1a4.69,4.69,0,0,0,1.88.46,3.48,3.48,0,0,0,2.37-.59,2.33,2.33,0,0,1,1.66-.17c.18,0,.33.11.28.35-.16.73.07.78-.09,1.13s-.72,0-1.13,0a.47.47,0,0,0-.43.19.84.84,0,0,0-.72.78,1.36,1.36,0,0,1,.62-.33,1.32,1.32,0,0,0,0,.16.51.51,0,0,0,.89.33c0-.06.17,0,.1.07-.28.21-.78.68-.36.84a1.3,1.3,0,0,0,.25.15.63.63,0,0,0,.45.65c-.09-.17-.12-.25,0-.6h.24c.31,0,.17-.6.51-.79.05,0,.09,0,.06,0-.11.35-.18.78.14.88a1.15,1.15,0,0,0,.25.05.55.55,0,0,0,.84.26c-.08,0-.31-.15-.36-.3a2.32,2.32,0,0,0,.22-.33c.21-.73-.43-.74-.43-1.05s.73-.12.73-.86a.47.47,0,0,0-.31-.47s0,0,0-.05h0c.22,0,.42,0,.53-.25-.55,0-.39-.42-.46-.71,0-.06,0-.09,0-.13s.3-.36.24-.79c-.18.26-.78.53-.86,0,0,0,0-.39-.57-.28a21,21,0,0,1-3.3-.25c2,0,4.91-.53,4.91-1.64M156,142.76s0,0,0,0a.08.08,0,0,0,0,0m4.79-4.32a4.31,4.31,0,0,0,1.18.47c-.55.1-.4.34-.75.32s-.48-.47-.43-.79m-.73-.37c-.15.27-.47.5-.75.23s0-.33-.28-.82a5.29,5.29,0,0,0,1,.59M159,140.51c.1-.21.19-.38.31-.38a.33.33,0,0,0,.38-.23c.08-.24-.13-.34-.34-.49.22,0,.34-.16.22-.27s-.35.11-.4,0,.13-.18.19-.24.17-.07.31,0l.94.45c.13.07.21.12.21.24s0,.29-.08.33-.08-.29-.25-.33-.16.15-.06.36c-.23-.07-.45-.19-.56,0a.36.36,0,0,0,.08.48c.08.1,0,.27-.07.49s-.36.53-.68.34a.54.54,0,0,1-.2-.75m2.48,5.28v0s0,0,0,0"/></g><g id="g3243"><path id="path3245" class="cls-1" d="M178.28,154.27c0-.88-.95-1.44-3.84-1.44s-11.72,1.08-11.72-.55c0-1,3-.61,5.18-.55a1.16,1.16,0,0,0,.64.41c3.7,1.05,7.58-1.44,10.22-.55-2.1-1.91-4.8.21-7.59-.38,1.64,0,3.34-.33,3.44-.78-1.27.84-4.88-.57-6.38.39a.8.8,0,0,0-.24.2c-2.74,0-6.07-.37-6.07,1.26,0,2.88,10.07,1.19,12.49,1.19s2.92.26,2.92.71c0,.69-2.4.84-3.76.84-2.24,0-11.65-1.22-15.39-.09.21-.64,1.11-1.6.69-2.1a.89.89,0,0,0,.61-.72,1.31,1.31,0,0,0-.7-.34c.11-.16,0-.36-.16-.5s-.14-.42-.2-.5a5,5,0,0,0-.85-.57,3.27,3.27,0,0,0-.85-.23,5,5,0,0,0-.53.07c-.2,0-.45,0-.49.21a1.08,1.08,0,0,0-.65-.28,1.25,1.25,0,0,0-.09,1c-.36,0-.71.89-1,.79.11.25.22.35.32.38-.28.51-.4,1.11-.73,1.15a2,2,0,0,0,.32.33,5.29,5.29,0,0,0-.11.88l-.3-.11a1.93,1.93,0,0,1-.45,0,2.74,2.74,0,0,0-.48-.07c-.45,0-.78-.78-1.55-1.22-.57-.34-.59-.61-.59-1.2s.24-1,.2-1.42c0,0-.09-.31-.14-.44a.75.75,0,0,0-.76-.5.64.64,0,0,1,.3.51,1.21,1.21,0,0,0-.22.27.35.35,0,0,0,0,.5.16.16,0,0,1,0,.1.84.84,0,0,1,0,.23c0,.1,0,.05-.06,0-.14-.37-.3-.88-.62-.9a1.52,1.52,0,0,0-.23,0s0,0,0-.07c0-.36-.42-.65-.85-.21a.55.55,0,0,1,.34.15,2.73,2.73,0,0,0-.1.38c0,.38.27.51.66.52a.11.11,0,0,1,.12.08,1.31,1.31,0,0,1,.05.15c0,.07,0,.07-.06.06-.64-.3-.93,0-.93.29a1,1,0,0,0,0,.25c-.24.19-.29.53.14.78,0-.1,0-.36.15-.4a.15.15,0,0,0,.07,0,.86.86,0,0,1,.19.17s.16,0,.37-.14a.17.17,0,0,1,.17,0l.19.12a.07.07,0,0,1,0,.12c-.44.42-.36.84.22.95.06,0,.08.05.08.13-.05.8-1.1.65-1.07-.16-.58.92.47,1.64,1.25,1.17,0,0,.07,0,.09,0a.37.37,0,0,0,.27.3c0-.06,0-.17.19-.17s0,0,0,.08a.5.5,0,0,0,.4.53c-.06-.18,0-.33.1-.33a8.77,8.77,0,0,0,1.89,1.75c.22-.06.55-.06.66-.34,0,.1.12.19.26.28,0,.53.38,1.2.27,1.2a9.92,9.92,0,0,0-2.38.11c-.55.3-1.86.78-2.25.22-.13-.19-.1-.36-.27-.65a.65.65,0,0,0-.42-.35h-.32a.76.76,0,0,0-.9-.1.65.65,0,0,1,.52.34,2.27,2.27,0,0,1-.16.25c-.1.19,0,.46.8.76,0,0,.12.09,0,.12a.43.43,0,0,1-.48,0c-.31-.26-.37-.62-.75-.4l-.27.12-.09,0c-.37,0-.94.44-.68.87a.67.67,0,0,1,.46-.39.85.85,0,0,1,.07.26c.08.43.27.77,1.15.18.09,0,.09,0,.08.06-.22.36-.81.74-.36,1l.2.15a.14.14,0,0,0,0,.07.78.78,0,0,0,.72.85.94.94,0,0,1-.27-.76c.12.05.22.1.25.07.42-.16.23-.67.46-.83s.13,0,.13.06.11.68.63.62a.69.69,0,0,0,.66-.7s0-.06,0,0a.53.53,0,0,1,.25.53,1,1,0,0,0,.36-.35.79.79,0,0,1-.2.87,1.25,1.25,0,0,0,.81-.86,1.05,1.05,0,0,1,.17.28s0,0,0-.05a1.62,1.62,0,0,0,1,0c.05,0,.05,0,.05,0a.72.72,0,0,0,.06.53c0-.05.14-.26.21-.26s0,.49.27.78c.13-1.26,1.62-.62,2.42-1.14.09-.06.11,0,.08,0a.84.84,0,0,1-.35.43,1.89,1.89,0,0,0,1.05-.41l-.1.11,1.29-.58a3.26,3.26,0,0,0,.06-.38c.16,0,.31-.07.45-.11,0,0,0,0-.05,0,.83.06.74-.62,1.07-.56,4.7.62,2-2,7.53-1.49.27,0,.38-.12.61-.33-.29.53-.29,1.44.27,1.53a2.12,2.12,0,0,1,.95.41c.05,0,0,.08,0,.09a2.9,2.9,0,0,0-.78.19c-.86.56-.89-1.28-1.79-.93l-.25.19c-.37,0-.86.42-.77.8a1,1,0,0,1,.58-.34,1.72,1.72,0,0,0,0,.2c0,.15,0,.28.33.28s.24-.08.37-.08a.09.09,0,0,1,.1.1c0,.34-1.13-.18-.92.77a1.7,1.7,0,0,0,.17.29c0,.28.19.57.71.41-.1-.06-.29-.19-.25-.34h.24s.09,0,.1-.14,0-.05.06-.05.09.05.09.09-.06.1-.06.19a1,1,0,0,0,.09.32c0,.34.46.7,1,.35-.14,0-.46-.08-.49-.25a.89.89,0,0,1,.22-.09c.1-.06.11-.2.11-.36a.09.09,0,0,1,.1-.08l.23,0c.12,0,.15,0,.17.07a.56.56,0,0,0,.71.3c.6-.22.1-.75.59-.86a.62.62,0,0,1,.36,0c.47.13,1.2.09,1.31-.13a1.28,1.28,0,0,0-.45-1.4c-.31-.15,0-.52-.27-1a4.67,4.67,0,0,0,1.8.44,3.34,3.34,0,0,0,2.23-.55,2.19,2.19,0,0,1,1.59-.16c.17,0,.31.1.27.33-.16.68.07.75-.08,1.05s-.7.06-1.08,0a.45.45,0,0,0-.41.2.79.79,0,0,0-.7.74,1.42,1.42,0,0,1,.59-.31.32.32,0,0,0,0,.14.48.48,0,0,0,.84.31c.06-.06.17,0,.11.05-.28.21-.76.67-.35.83l.23.13a.6.6,0,0,0,.43.61c-.08-.15-.11-.25,0-.55h.24c.29,0,.16-.59.48-.76,0,0,.07,0,.06,0-.12.34-.17.75.13.84a1.68,1.68,0,0,0,.23.06.54.54,0,0,0,.8.23.82.82,0,0,1-.36-.27.86.86,0,0,0,.21-.31c.22-.7-.39-.72-.39-1s.71-.12.71-.85a.48.48,0,0,0-.32-.43s0,0,0,0h0c.2,0,.4,0,.5-.21-.53,0-.35-.41-.43-.7,0-.07,0-.1,0-.12a.78.78,0,0,0,.22-.77c-.17.25-.74.53-.78,0,0,0-.06-.38-.58-.27a19,19,0,0,1-3.13-.25c1.66-.12,4.66-.47,4.66-1.56m-21-2.34a5.37,5.37,0,0,0,1.13.45c-.52.1-.4.29-.74.28s-.44-.45-.39-.73m-.69-.36c-.15.24-.47.46-.71.22s0-.3-.28-.78a4.63,4.63,0,0,0,1,.56m-1.06,2.31c.08-.19.16-.35.28-.35s.3,0,.37-.22-.13-.34-.32-.46c.2,0,.31-.15.2-.26s-.34.08-.39,0,.12-.17.19-.23.16-.07.28,0l.92.43c.11.06.18.11.18.24s0,.28-.06.3-.08-.28-.26-.3-.12.11,0,.32c-.21-.07-.43-.17-.53,0a.35.35,0,0,0,.07.46c.07.09,0,.25-.06.45s-.35.5-.65.35a.52.52,0,0,1-.18-.74"/></g><g id="g3247"><path id="path3249" class="cls-1" d="M219.19,176.45s0-.08.05-.1a.82.82,0,0,0,.3-.78c-.19.26-.79.54-.81,0,0,0,0-.37-.54-.27a20.65,20.65,0,0,1-3.35-.23c-.1,0-.19-.08,0-.11,1.64-.14,4.67-.38,4.67-1.44,0-.88-1-1.45-3.86-1.45s-11.7,1-11.7-.57c0-1,3-.6,5.18-.53a1.12,1.12,0,0,0,.63.39c3.71,1.06,7.93-1.72,10.17-1.07-2.92-1-4.75.74-7.55.16,1.64,0,3.37-.34,3.45-.78-1.27.82-4.86-.57-6.37.38a1.11,1.11,0,0,0-.26.2c-2.72,0-6-.35-6,1.25,0,2.87,10.05,1.21,12.45,1.21s2.95.25,2.95.7c0,.69-2.39.87-3.76.87-2.26,0-11.64-1.26-15.4-.11.2-.64,1.13-1.6.71-2.1a.9.9,0,0,0,.6-.74A1.23,1.23,0,0,0,200,171c.12-.17,0-.35-.17-.49s-.11-.43-.21-.49a3.16,3.16,0,0,0-.84-.59,2.3,2.3,0,0,0-.85-.22,2.4,2.4,0,0,0-.52.06c-.2,0-.44,0-.48.22a1.15,1.15,0,0,0-.67-.28,1.31,1.31,0,0,0-.08,1c-.36,0-.71.87-1,.77.13.25.23.35.33.38-.27.5-.4,1.12-.73,1.14.2.28.36.41.48.43,0,.29-.07.6-.08.85l-.49-.17-.46,0a3.41,3.41,0,0,0-.46-.09c-.45,0-.8-.78-1.57-1.22-.57-.33-.58-.6-.58-1.21s.23-.94.21-1.39a3.91,3.91,0,0,0-.15-.45.77.77,0,0,0-.77-.5.61.61,0,0,1,.31.5c-.1.11-.21.25-.24.27a.41.41,0,0,0,0,.5.11.11,0,0,1,.05.09.6.6,0,0,1-.05.23c0,.11-.05.05-.07,0-.1-.34-.28-.86-.6-.89l-.25,0a.07.07,0,0,0,0-.06c0-.36-.41-.66-.84-.22.11,0,.29.05.35.16s-.09.35-.1.37c0,.38.25.52.64.52.09,0,.13,0,.14.08s0,.11,0,.16,0,.06-.05,0c-.65-.29-.94,0-.95.31a1.12,1.12,0,0,0,0,.25c-.22.16-.28.52.14.78,0-.1,0-.37.15-.42h.08c.07.05.15.14.18.14s.15,0,.39-.13a.25.25,0,0,1,.15,0,.62.62,0,0,0,.19.13s0,.08,0,.11c-.45.43-.38.86.21,1,.06,0,.08.05.08.12,0,.82-1.11.65-1.07-.16-.59.94.46,1.64,1.25,1.17.06,0,.08,0,.1,0s.11.29.25.29a.19.19,0,0,1,.19-.16s.06,0,.06.08c0,.22.09.5.39.53,0-.18,0-.32.09-.32s.67,1.18,1.86,1.83c0-.1.44-.28.69-.43a.72.72,0,0,0,.4.52l.2-.1c-.07.54.58,1.12.46,1.12a4.94,4.94,0,0,0-1.65.05c-.53.31-1.87.78-2.25.24-.13-.22-.09-.38-.27-.67a.64.64,0,0,0-.42-.35h-.32a.78.78,0,0,0-.89-.1.66.66,0,0,1,.49.34c0,.11-.12.23-.13.26-.11.18-.05.46.79.75,0,0,.13.08.06.13a.4.4,0,0,1-.47-.06c-.33-.25-.38-.62-.78-.4a.91.91,0,0,1-.26.12h-.08c-.37,0-.93.43-.68.87a.59.59,0,0,1,.45-.41l.08.26c.09.45.25.78,1.14.2.1,0,.09,0,.06,0-.19.37-.8.74-.34,1l.19.16s0,.05,0,.08a.79.79,0,0,0,.73.84.87.87,0,0,1-.29-.74,1.47,1.47,0,0,0,.26.07c.42-.18.22-.69.47-.85.06,0,.1,0,.12.06,0,.21.12.68.63.62A.64.64,0,0,0,193,179c0-.06,0-.06.06-.06a.55.55,0,0,1,.24.56,1.17,1.17,0,0,0,.37-.37.78.78,0,0,1-.21.88,1.29,1.29,0,0,0,.82-.86.75.75,0,0,1,.18.27s0,0,0,0a1.66,1.66,0,0,0,1,0c.07,0,.07,0,.07.05a.65.65,0,0,0,.05.51s.13-.26.21-.26,0,.49.28.81c.12-1.29.81-.78,1.61-1.29.09-.06.09,0,.08.05a.83.83,0,0,1-.36.42c.29.22,1.46-.51,1.46-1,0-.12.44-.16.83-.24.82.05.71-.61,1-.57,4.71.64,2-2,7.53-1.48.26,0,.4-.31.62-.52-.29.52-.3,1.62.27,1.73a2.26,2.26,0,0,1,.95.39c0,.05,0,.09,0,.1a2.76,2.76,0,0,0-.79.2c-.84.56-.86-1.28-1.78-1a1.55,1.55,0,0,0-.25.21c-.38,0-.86.43-.78.8a.91.91,0,0,1,.59-.34v.18c0,.17,0,.3.33.3s.24-.08.35-.08a.1.1,0,0,1,.11.1c0,.34-1.14-.18-.93.75a1.2,1.2,0,0,0,.19.3c0,.28.19.57.69.41-.09-.08-.28-.21-.24-.35l.22,0c.06,0,.1,0,.13-.15s0-.06.06,0a.09.09,0,0,1,.09.07c0,.06-.07.12-.06.2s0,.28.08.32c0,.34.45.71,1,.35-.14,0-.45-.08-.51-.24a2.24,2.24,0,0,1,.26-.11.45.45,0,0,0,.1-.35c0-.08.05-.08.08-.08h.25c.11,0,.14,0,.16.06a.59.59,0,0,0,.71.29c.62-.22.1-.73.6-.85a.76.76,0,0,1,.37,0c.47.12,1.17.1,1.31-.13a1.29,1.29,0,0,0-.46-1.39c-.3-.14,0-.54-.26-1a4.25,4.25,0,0,0,1.79.45,3.82,3.82,0,0,0,2.36-.54,2.13,2.13,0,0,1,1.62-.17c.14,0,.28.1.21.32-.2.69,0,.76-.17,1.07s-.7,0-1.1,0a.54.54,0,0,0-.4.19c-.34.07-.75.36-.76.74a1.32,1.32,0,0,1,.63-.3v.14a.46.46,0,0,0,.82.31c0-.05.16,0,.09.06-.29.2-.81.64-.41.81l.21.13a.54.54,0,0,0,.38.62c-.07-.15-.08-.25.08-.56h.22c.29,0,.21-.58.56-.75,0,0,.07,0,0,0-.13.34-.24.75.05.84a.8.8,0,0,0,.23.05.51.51,0,0,0,.78.25c-.08-.05-.28-.14-.32-.28a1.54,1.54,0,0,0,.23-.32c.28-.71-.33-.72-.3-1s.7-.12.76-.85a.39.39,0,0,0-.26-.4s0,0,0-.06h0c.2,0,.39.06.54-.22-.54,0-.34-.41-.4-.7m-20.72-5.36a4.71,4.71,0,0,0,1.12.45c-.52.11-.4.3-.71.3s-.47-.45-.41-.75m-.69-.36c-.15.28-.45.48-.72.23s0-.3-.27-.77a5.65,5.65,0,0,0,1,.54m-1.08,2.33c.11-.2.2-.36.3-.36s.3,0,.38-.23-.14-.32-.34-.45c.21-.06.34-.16.2-.25s-.33.07-.36,0,.11-.18.17-.26.16-.05.29,0l.91.43c.1.07.18.11.17.26s.05.27,0,.29-.1-.27-.25-.3-.14.12,0,.34c-.24-.08-.43-.2-.55,0a.36.36,0,0,0,.08.46c.06.07,0,.24-.07.47s-.33.47-.63.31a.52.52,0,0,1-.21-.72m-.74-1.29h0Zm.22-1s-.05,0-.07,0a.08.08,0,0,1,.07,0m4.3,6.72h0"/></g><g id="g3251"><path id="path3253" class="cls-1" d="M206.29,183.7a.9.9,0,0,0,.64.46c3.54,1,7.56-1.64,9.69-1-2.78-1-4.52.7-7.2.16,1.57,0,3.21-.33,3.3-.77-1.22.81-4.64-.5-6.08.39a1,1,0,0,0-.22.17c-1.95-.05-3.53-.05-3.53,1.22,0,2.74,7.33,1.14,9.64,1.14s2,.24,2,.67c0,.65-2.63.82-3.92.82-2,0-8-1-11.62-.31.29-.59,1-1.37.59-1.79a.87.87,0,0,0,.57-.71,1.26,1.26,0,0,0-.68-.3c.11-.16,0-.35-.15-.49s-.12-.4-.19-.46a3.25,3.25,0,0,0-.81-.54,2.32,2.32,0,0,0-.82-.23c-.09,0-.45.07-.5.05s-.42,0-.45.22a1.06,1.06,0,0,0-.62-.27,1.33,1.33,0,0,0-.11,1c-.32,0-.65.86-1,.75.11.23.21.33.31.36-.28.48-.39,1.06-.69,1.1a1.39,1.39,0,0,0,.28.3,5.47,5.47,0,0,0-.19,1l-.31-.11h-.15a2.68,2.68,0,0,1-1.42-.42c-.55-.31-.56-.59-.56-1.14s.23-.9.2-1.35a2.66,2.66,0,0,0-.13-.43.75.75,0,0,0-.74-.46.62.62,0,0,1,.3.46,1.6,1.6,0,0,0-.21.26.33.33,0,0,0,0,.48.1.1,0,0,1,0,.1c0,.05,0,.12,0,.22s-.05.05-.07,0c-.12-.34-.27-.84-.59-.85a1.22,1.22,0,0,0-.21,0v-.06c0-.36-.38-.64-.8-.23.1,0,.26,0,.33.16a3.08,3.08,0,0,0-.11.36c0,.36.27.49.64.5.07,0,.09,0,.12.08a.78.78,0,0,1,0,.14c0,.07,0,.06-.06,0-.61-.26-.86,0-.89.29a.65.65,0,0,0,0,.26c-.23.15-.29.49.11.73,0-.11,0-.33.14-.37l.1,0c0,.08.15.14.15.16s.16,0,.36-.12a.12.12,0,0,1,.15,0,2.31,2.31,0,0,0,.19.14.05.05,0,0,1,0,.09c-.41.41-.35.82.19.9.08,0,.09.08.09.15,0,.76-1.06.61-1-.16-.56.88.44,1.55,1.2,1.11,0,0,.06,0,.07,0s.13.29.27.3a.16.16,0,0,1,.15-.16c.07,0,.07,0,.07.08a.48.48,0,0,0,.36.5c0-.15,0-.32.1-.32s.12-.33,1.06.19a.67.67,0,0,0,.35.35l.69-.12c-.08.54.08,1.34,0,1.34a4.65,4.65,0,0,0-1.59.07c-.51.28-1.77.74-2.13.22-.13-.19-.09-.37-.24-.63a.71.71,0,0,0-.42-.33h-.3a.75.75,0,0,0-.87-.11.63.63,0,0,1,.48.32c-.06.09-.1.23-.12.25-.1.18,0,.44.76.72,0,0,.1.09,0,.13a.43.43,0,0,1-.44-.05c-.31-.26-.35-.6-.72-.38L189,190a.24.24,0,0,0-.1,0c-.34,0-.87.42-.63.82a.56.56,0,0,1,.43-.36l.08.24c.07.42.26.74,1.08.17.1,0,.1,0,.08.05-.21.37-.75.71-.33,1a1.86,1.86,0,0,0,.19.14.73.73,0,0,0,0,.09.75.75,0,0,0,.71.78.85.85,0,0,1-.27-.7,2.74,2.74,0,0,0,.27.07c.4-.17.19-.64.42-.8.07,0,.1,0,.1,0s.12.64.61.61a.64.64,0,0,0,.62-.68s0,0,.07,0a.49.49,0,0,1,.22.52,1.08,1.08,0,0,0,.34-.36.74.74,0,0,1-.19.85,1.17,1.17,0,0,0,.77-.83.87.87,0,0,1,.18.26l.05,0a1.56,1.56,0,0,0,.94,0,0,0,0,0,1,.06.05.5.5,0,0,0,0,.5c0-.07.13-.27.2-.27s0,.49.27.76c.11-1.2,1.08-.9,1.84-1.4.07-.06.08,0,.07,0a.72.72,0,0,1-.33.39c.81.51,1.66-.61,1.91-1.22a.79.79,0,0,0,.21-.24c.06.12.08.24-.13.36.79,0,.7-.58,1-.55,2.39.2.57-2,4.4-1.34a1.5,1.5,0,0,0,.94-.41c-.27.5-.28,1.55.25,1.64a2.49,2.49,0,0,1,.92.38c0,.06,0,.08,0,.09a1.85,1.85,0,0,0-.75.2c-.8.52-.83-1.24-1.69-.89a.67.67,0,0,0-.24.16c-.35,0-.82.41-.74.76a.93.93,0,0,1,.56-.31,1.83,1.83,0,0,1,0,.19c0,.12,0,.28.32.28s.23-.1.35-.1.1,0,.1.12c0,.31-1.07-.19-.89.71a1,1,0,0,0,.18.27c0,.27.19.56.67.4-.09-.05-.27-.2-.23-.33a1,1,0,0,0,.21,0s.09,0,.1-.13a.05.05,0,0,1,.06-.06c.05,0,.1.06.1.09s-.07.1-.07.18a1,1,0,0,0,.09.3c0,.32.43.68.92.35-.14,0-.44-.08-.48-.26s.21-.07.23-.09a.44.44,0,0,0,.09-.33c0-.07.07-.07.11-.07l.21,0a.14.14,0,0,1,.17.06.54.54,0,0,0,.68.29c.58-.22.07-.73.54-.81a.62.62,0,0,1,.36,0c.45.1,1.13.09,1.25-.11a1.22,1.22,0,0,0-.44-1.35c-.29-.13,0-.49-.24-.92a3.82,3.82,0,0,0,1.71.43,4.48,4.48,0,0,0,2.46-.52,2.11,2.11,0,0,1,1.56-.16c.15,0,.26.11.15.32-.28.65-.12.72-.32,1s-.68.07-1.05,0a.66.66,0,0,0-.41.16,1.14,1.14,0,0,0-.85.73,1.41,1.41,0,0,1,.65-.3c0,.05,0,.14,0,.15-.07.44.37.58.73.28.05-.06.16,0,.08.07-.3.2-.88.61-.55.78l.22.11a.42.42,0,0,0,.24.59c0-.15,0-.24.17-.53l.22,0c.28,0,.29-.58.65-.74.05,0,.07,0,.05,0-.19.33-.35.72-.08.8l.2.06c0,.25.29.42.72.22-.08,0-.28-.15-.28-.25l.28-.3c.37-.69-.21-.69-.14-1s.68-.11.88-.79c0-.12,0-.34-.18-.42s0,0,0,0h0c.2,0,.37.05.55-.23-.51,0-.24-.37-.24-.64a.15.15,0,0,1,0-.12.81.81,0,0,0,.4-.71c-.2.22-.82.48-.77,0,0,0,.06-.34-.46-.26a24.51,24.51,0,0,1-3.6-.23c-.1,0-.17-.08,0-.12,1.57-.11,4.78-.34,4.78-1.36,0-.84-.16-1.38-2.89-1.38s-8.91,1-8.91-.53c0-.74,1.19-.69,2.64-.6m-8.91-.19c-.17.25-.45.45-.7.21s0-.29-.24-.75a4.14,4.14,0,0,0,.94.54m.54,1.67c-.08,0-.08-.26-.23-.29s-.13.1-.05.31c-.21-.07-.4-.19-.51,0s0,.28.08.43,0,.25-.07.44a.47.47,0,0,1-.62.31.5.5,0,0,1-.18-.68c.1-.2.18-.33.28-.33a.31.31,0,0,0,.36-.21c.07-.23-.12-.32-.32-.46.21-.05.31-.14.21-.22s-.33.07-.36,0,.09-.17.16-.22a.2.2,0,0,1,.27,0l.88.4c.09.06.17.1.16.24s0,.25-.06.29m.48-.62c-.32,0-.44-.43-.38-.73a4.11,4.11,0,0,0,1.06.45c-.48.1-.37.3-.68.28"/></g><g id="g3255"><path id="path3257" class="cls-1" d="M203.39,196.41a.93.93,0,0,0,.65.47c3.52,1,7.55-1.65,9.7-1-2.78-1-4.55.73-7.21.16,1.56,0,3.22-.31,3.3-.73-1.22.79-4.64-.55-6.09.34a1.15,1.15,0,0,0-.27.27c-1.08.23-2,.82-2,1.62,0,2.32,9,.48,9,1.27,0,.62-1.77,1.2-4.13,1.2-1.81,0-4.92-1.19-8.82-.2v0c.28-.66,1.11-1.66.73-2.09a.79.79,0,0,0,.56-.65,1,1,0,0,0-.63-.29c.08-.19,0-.33-.16-.48s-.1-.38-.19-.44a2.87,2.87,0,0,0-.75-.51,3,3,0,0,0-.79-.23,1.87,1.87,0,0,0-.46.09c-.18,0-.41,0-.44.18a1.16,1.16,0,0,0-.58-.27,1.17,1.17,0,0,0-.1.95c-.31,0-.62.8-.91.71.11.23.2.32.29.33-.25.48-.37,1-.66,1a1.44,1.44,0,0,0,.32.33,6.46,6.46,0,0,0-.15,2.21,16.07,16.07,0,0,0-1.93-2.21c-.52-.31-.53-.56-.53-1.08s.21-.85.18-1.27c0-.05-.08-.29-.12-.42a.71.71,0,0,0-.7-.44.59.59,0,0,1,.29.46,1.34,1.34,0,0,0-.2.24.29.29,0,0,0,0,.44.14.14,0,0,1,0,.1,1,1,0,0,1,0,.21c0,.09,0,0-.06,0-.1-.33-.27-.79-.54-.81h-.22s0,0,0-.07c0-.33-.36-.58-.76-.19.09,0,.26.05.31.14a1.79,1.79,0,0,0-.08.35c0,.32.23.46.59.46,0,0,.11,0,.11.07s0,.1.05.14,0,.07-.05,0c-.61-.24-.86,0-.87.28a1.14,1.14,0,0,0,0,.25c-.2.15-.26.45.13.7,0-.13,0-.33.12-.37s.07,0,.09,0l.16.15s.14,0,.36-.13c0,0,.05,0,.11,0l.18.12s0,.08,0,.09c-.4.39-.32.76.18.87a.1.1,0,0,1,.1.11c-.06.72-1,.59-1-.15-.54.85.42,1.5,1.12,1.07,0,0,.07,0,.08,0s.09.24.24.26a.17.17,0,0,1,.15-.17.07.07,0,0,1,.07.08.43.43,0,0,0,.34.49c-.05-.16,0-.3.09-.3s0,1.13,1,1.73a1.19,1.19,0,0,0,1.26.91c.17.43.44.85.36.85a5.74,5.74,0,0,0-1.74,0,3.36,3.36,0,0,1-1.15.39l-.07.1s0-.07.06-.1a.88.88,0,0,1-.86-.19c-.12-.18-.09-.34-.23-.6a.66.66,0,0,0-.39-.31l-.3,0a.74.74,0,0,0-.8-.09.63.63,0,0,1,.45.31c0,.09-.1.21-.11.25s0,.4.71.67c0,0,.12.08,0,.1a.35.35,0,0,1-.42,0c-.31-.23-.34-.56-.71-.36a.61.61,0,0,1-.22.11l-.1,0c-.32,0-.85.39-.6.79a.58.58,0,0,1,.41-.36.77.77,0,0,0,.09.23c0,.39.22.71,1,.17.1,0,.1,0,.06.07-.18.32-.71.64-.29.92l.18.11a.14.14,0,0,0,0,.08.71.71,0,0,0,.66.76.73.73,0,0,1-.24-.67.56.56,0,0,0,.24.07c.36-.16.19-.63.4-.77s.09,0,.09.05.12.61.58.58a.62.62,0,0,0,.6-.64s0-.05,0,0a.41.41,0,0,1,.21.48.79.79,0,0,0,.33-.33.62.62,0,0,1-.18.77,1.05,1.05,0,0,0,.73-.76.43.43,0,0,1,.16.26l0,0a1.35,1.35,0,0,0,.9,0s.07,0,.07,0a.53.53,0,0,0,0,.47s.12-.24.19-.24,0,.43.26.71c.1-1.14.71-.7,1.44-1.17.09,0,.09,0,.08.06a.87.87,0,0,1-.33.37c.28,0,1.09-.36,1.09-.77a5.15,5.15,0,0,0,.67-2,1.4,1.4,0,0,0,.29,0c1-.07,1.4-.77,2.35-.82a2.4,2.4,0,0,0-.29,1.38c0,.52.68,1.1.87,1.26,0,.06,0,.07,0,.08a2,2,0,0,0-.7.19c-.78.52-.8-1.16-1.62-.85a1.16,1.16,0,0,0-.22.18c-.34,0-.79.37-.7.72a.88.88,0,0,1,.51-.31V205c0,.14,0,.26.31.26s.2-.08.32-.08a.1.1,0,0,1,.11.1c0,.33-1-.18-.83.69a1.55,1.55,0,0,0,.13.26c0,.26.2.52.64.38-.09-.08-.26-.18-.22-.33a1.46,1.46,0,0,1,.2,0c.05,0,.1,0,.13-.14s0,0,0,0,.09,0,.09.08-.07.1-.07.19a.75.75,0,0,0,.09.25c-.05.32.4.64.87.32-.12,0-.42-.05-.45-.21l.22-.09a.39.39,0,0,0,.1-.3c0-.09,0-.09.07-.09h.22c.1,0,.13,0,.15.08a.52.52,0,0,0,.64.24c.55-.18.1-.66.53-.77a1,1,0,0,1,.34,0c.43.11.77.2.89,0a1.19,1.19,0,0,0-.41-1.26c-.28-.15.4-1.86-.93-2.67.63.15,2.62.43,3,0a3.39,3.39,0,0,1,1.37.67c.08.12.13.26-.05.36-.53.32-.45.5-.74.6l0,0A3,3,0,0,0,204,203a.37.37,0,0,0-.41,0,.73.73,0,0,0-.84.33,1.17,1.17,0,0,1,.6,0,.74.74,0,0,0,0,.14.25.25,0,0,0,.12.27h0s0,0,.06,0,0,.08-.06.08c-.3-.06-.88-.09-.74.26a1.57,1.57,0,0,0,.06.23.52.52,0,0,0-.13.67c0-.14.1-.22.37-.33a1.87,1.87,0,0,1,.14.18c.18.17.48-.29.8-.18,0,0,.06,0,0,.06-.3.13-.61.34-.47.59a1,1,0,0,0,.09.19.52.52,0,0,0,.36.69.73.73,0,0,1-.05-.42l.34,0c.6-.31.21-.71.42-.88s.49.36,1-.08a.41.41,0,0,0,.09-.45s0,0,0-.05h0c.13.13.24.28.47.17-.36-.31,0-.46.18-.7,0,0,0-.07.1,0s.41,0,.64-.33c-.26.06-.95-.35-.53-.5.59-.22.72-.56.45-.87-.47-.62-1.45-.68-1.48-1.37h.89c3.06,0,5-.85,4.93-1.82-.1-2.05-9.21.18-9.21-1.32,0-.45.56-.79,1.27-1m-6.61.31a4.55,4.55,0,0,0,1,.41c-.46.09-.36.28-.65.25s-.42-.4-.36-.66m-.6-.32c-.15.22-.44.42-.66.2s0-.29-.25-.69a4,4,0,0,0,.91.49m-1,2.08c.09-.17.17-.32.26-.32s.27,0,.32-.19-.11-.3-.28-.4c.19-.08.28-.16.19-.25s-.32.06-.34,0,.1-.18.15-.24.16,0,.26,0l.82.4c.09.07.16.11.16.22s0,.25-.06.28-.06-.25-.21-.28-.13.09-.05.28c-.2,0-.38-.16-.47,0a.28.28,0,0,0,.07.4c0,.08,0,.24-.06.42s-.31.46-.59.29a.45.45,0,0,1-.17-.65"/></g><g id="g3259"><path id="path3261" class="cls-1" d="M55.87,37.48a2.21,2.21,0,1,0-2.22,2.21,2.22,2.22,0,0,0,2.22-2.21"/></g><g id="g3263"><path id="path3265" class="cls-1" d="M55.1,31.59a2.21,2.21,0,1,0-2.22,2.21,2.22,2.22,0,0,0,2.22-2.21"/></g><g id="g3267"><path id="path3269" class="cls-1" d="M56.35,29a2.22,2.22,0,1,0-2.19-2.21A2.21,2.21,0,0,0,56.35,29"/></g><g id="g3271"><path id="path3273" class="cls-1" d="M62.23,28.59A2.22,2.22,0,1,0,60,26.38a2.21,2.21,0,0,0,2.19,2.21"/></g><g id="g3275"><path id="path3277" class="cls-1" d="M87.31,24.5a2.21,2.21,0,1,0,0-3.13,2.2,2.2,0,0,0,0,3.13"/></g><g id="g3279"><path id="path3281" class="cls-1" d="M86.82,19.79a2.21,2.21,0,1,0-3.12,0,2.21,2.21,0,0,0,3.12,0"/></g><g id="g3283"><path id="path3285" class="cls-1" d="M81,18.84a2.22,2.22,0,1,0-3.13,0,2.24,2.24,0,0,0,3.13,0"/></g><g id="g3287"><path id="path3289" class="cls-1" d="M76,22.55a2.21,2.21,0,1,0-3.12,0,2.22,2.22,0,0,0,3.12,0"/></g><g id="g3291"><path id="path3293" class="cls-1" d="M61.89,19.51l1.77,3.86,2.24-2.68.26.09a39.13,39.13,0,0,1,.28,4.81,2.82,2.82,0,1,0,4.13-2.49,22.23,22.23,0,0,1-3.1-2.9,1.4,1.4,0,0,0,.13-.36l3.74.34-1.48-4-2.79,2.37-.15-.08-.2-4.1-3.87,1.47,2.58,3a1.53,1.53,0,0,0-.16.31Z"/></g><g id="g3295"><path id="path3297" class="cls-1" d="M87.45,26.39a5.74,5.74,0,0,1,1.24,3,6.15,6.15,0,0,1-2.3-2.09l.46,5.15a4.44,4.44,0,0,1,1.84-1.86c-.18,3.35-1.53,4.74-2.67,5a2.17,2.17,0,0,1-2.63-1.71c-.29-1.5,1-2.43,2.32-1.09.24-3.1-2.25-3-3.34-1.74,1.29-3,.77-4.95-1.87-6.56-1.65,2.8-1,4.63,1.14,6.74-2-1-3.87.71-2,3,.39-2,2.11-1.54,2.51,0,.34,1.36-.95,3.1-3.16,3.76-3.16,1-4.19-1.07-5-2.78.68-.45,2.33-.29,4.13.87l-1.53-5a5.1,5.1,0,0,1-3,3.07,15.72,15.72,0,0,1,1-4.41L68.45,32.2a15.47,15.47,0,0,1,3.77,2.48,5.13,5.13,0,0,1-4.3-.08l2.42,4.67c.49-2.08,1.54-3.33,2.35-3.5.64,1.77,1.33,3.94-1.6,5.47-2,1.06-4.18.73-4.89-.5-.82-1.39.11-2.93,1.76-1.78-.28-2.91-2.81-2.87-3.54-.69,0-3-.75-4.8-3.9-5.64-.77,3,.25,4.78,3.25,6-1.7-.19-3.52,1.51-1.18,3.57,0-1.88,1.57-2.11,2.43-.85a2.18,2.18,0,0,1-.71,3.06c-1,.64-2.9.59-5.37-1.69a4.48,4.48,0,0,1,2.61,0l-3.25-4a6.25,6.25,0,0,1-.19,3.1,5.55,5.55,0,0,1-1.24-3l-2.49,2.22c2.36,1.43,5.07,3.68,8.34,8.23A99.52,99.52,0,0,1,90.54,38c-.82-5.54-.44-9,.24-11.71Z"/></g><g id="g3299"><path id="path3301" class="cls-1" d="M135.9,167.05c.87-2.35-3.47-5-4-8.43s-.08-6.62-4-11.17-17-18.58-21-23.09a6.33,6.33,0,0,1,5.8,1.67c1.42,1.34,4.24,4,6.88,6.62a71.51,71.51,0,0,1,14-22.55c.79-.9,1.59-1.77,2.42-2.61-2.28.69-5.79,1.23-7.82,2.59-.16-3.88.14-7-2.52-9.5,1-5.43.14-12-12-20.07,6.21,1.49,9.9,7.13,14.66,2.8-4.28-.12-4.37-9.44-19.79-17.21,5.89-.12,10.49,9.41,17.3,4-6.43-.76-8.55-12.2-20.14-15.73,4,.45,8.16,2.42,11.61-2.26-4,1-6.39-2.77-10.7-3.1,1.63-5,1.23-8.1-.49-11.83a14.84,14.84,0,0,0-8.35,3c-.33-2.75-3.23-2.91-5.78-2.71.13,1.2.7,2.92-.6,3.16a110.45,110.45,0,0,0-14.28,4.32A77.15,77.15,0,0,0,64,52c-1.07.74-2-1-2.66-1.81-1.87,1.59-3.71,3.66-2.34,5.75a16.51,16.51,0,0,0-9,3.23c0,3.44,2.85,6.78,7.09,8.64-7.15,7.12-.68,13.7-7,19.91C59,88,57.43,75.69,61.9,74c-.46,8.68-5.3,10.22-5.3,19.58,0,5,3,10.43.32,13.72,7.4-2,5.45-18.43,10.07-23.38a13.82,13.82,0,0,1-.62,8.36c-2.59,7.64.29,18.11-3.75,21.51,7.56-.73,8.46-12.88,14.68-17.34C72,107.37,66.47,130.64,58.5,142.3,45.6,159.7,38,180.94,26.21,180.94c-5.22,0-9.14-3.21-9.14-9.8,0-19.79,33.9-33.4,33.9-54.49a12.53,12.53,0,0,0-12.43-13c-3.23,0-7.12,1.6-10.38,4.29a11.24,11.24,0,0,0-4-.88c-12,0-8.79,21.57-19.24,21.36,4.14,2.32,11.29-2.21,15.48-8.24-1.76,14-21.86,10.26-20.32,27.06,2.83-13.15,34.86-11.22,34.86-31.17a7.66,7.66,0,0,0-2.75-5.62A12.28,12.28,0,0,1,39,108.36c3.83,0,7.33,2.86,7.33,8.51,0,17.67-33.7,32.57-33.7,54.27a15.37,15.37,0,0,0,2.8,9.11c-2.36,1-4.81.54-6.84-1.84-.19,5.58,7.78,9.1,12.8,6.3a13.11,13.11,0,0,0,3.5.71c-1.53,4.16-6.68,5.4-9.37,5.2,8.27,6.52,22.66-2,21.87-9.4,6.56-5.3,10.71-14.36,15.47-20.32-.3,1.38-.56,2.76-.75,4.11-4.84,8.79-9.36,16.68-10.63,28.27-1,9.7-5.95,18.44-12.75,18.44-1.5,0-4-1.95-5.11-1-2.12,1.82-.11,3.73-.11,5.55,0,2.75-5.31,5.5-5.31,14,0,3.85,2.23,8.43,1.39,11,2.16-1.12,5.05-4.75,6.25-9.46,2.33,11.25-4.8,10.77.33,20.74.64-3.31,3.94-4.67,5.95-3.31s1.08,2.35-.42,3.85-2.87,9,3.94,8.51c-1.28-.84-1.36-2.82,2-3.51,4.69-1,6.06,1.2,11.06,1.2,3.08,0,3.93-4,6.38-4s2.44,1.91,1.59,3.3c3.94-1.07,4.67-3.19,4.67-5.43s-1.81-3.6-.42-4.46,6,.1,4.14,3.82c2.35-.41,3.62-2.12,3.62-5s-3.29-4.57-6.37-4c-.53-1.81-3.2-2.77-5.64-2.77-5.53,0-4.67,4.36-8.47,4.36-6.06,0-12-7.9-12-21.21,0-7.13,7.66-8.93,13.09-11.27s14.92-8.19,20.61-17.76c4.47-7.48,4.6-15.69,4-25.41,7.63,4.39,8.53,10.7,8.53,15.3,0,5.95-3.08,8.36-5.5,9.46-2.06.95-2.75.56-3,1.78a2.63,2.63,0,0,0,1.63,2.86c2.76,1.42,2.19,4.06,3,6.91a21.9,21.9,0,0,0,7.6,10.69c.44-1.77.32-4.61.07-8.31,5.87,2.9,1.16,14.71,12.57,14.71-2.1-1.2-1.54-4.3-.34-4.74s2.75.77,5,3.84,1.61,2.83,7,2.83,3-1.86,5.82-1.86,2.64,3.3,1.11,5.72c4.82-1.46,6.27-5.11,4.64-8.88,4.24-2.3,6.49,1,7.11,3.27,4.18-4.17,0-9.23-3.28-9.58a3.36,3.36,0,0,0-3.09-3.3,43.3,43.3,0,0,0-5.38-.12c-2,.12-3.09,3-5.4,3-7.14,0-21.29-13-21.29-18.58s13.53-9,13.53-17.72c0-11.38-11.17-15.24-20.57-22.55,3.35-3.77,13.13-4.65,18.67-1.94.63-3.16,2.67-2.38,3.41-7.85,2,4.81-.07,8.95,2,11,1.58-2.31,5.63-2,5.38-7.93,1.23,3.73-1.57,9.43,1.23,11.91.5-3.06,2.32-3.65,3.48-3.65s2.15.84,2.15,2.66c0,4.53-5.6,2.42-5.6,7.55,0,2.15,2.72,2.89,2.72,4.29s-2.23,3.55-5,1.73c.91,2,2.7,3.73,5,3.73a7.25,7.25,0,0,0,6.16-4.56c1.29,3.27.3,6.88-2,7.36,2.47,1.23,8.33.07,7.66-7.45,3.31.56,5,2.79,3.08,6.79,2.72-.66,5.2-2,5.2-4.89,0-2.22-2.42-2.89-1.34-5.79M71.85,64.52c-3.09.28-3-2.68-8.46-4a93.76,93.76,0,0,0,13-4.35c.81,3.56-.65,8-4.56,8.35M93.74,87.75c-4,1.72-7.06-1.77-7.82-4.14s-1.41-4.38-.48-5.28c1.72-1.7,2.26-3,1.22-5.14-1.19-2.44-3.78-1.28-6.56-.6,1.29-2.33,1.39-4-.37-3.78-2.11.24-2.15,3.67-3.32,3.25s-.51-2.37-.51-3.43c0-1.44.95-2,2.4-2.61l11.51-4.36c1.49-.54,2.51-.82,3.54.21.73.75,2.58,1.7,2,2.81s-3-1.32-4.65,0c-1.42,1.08-.18,2.19,2.37,3-2.48,1.45-5.13,2.42-4.29,5,.73,2.23,2,2.8,4.43,2.82,1.3,0,2.23,1.88,3.32,4.13s1.44,6.34-2.8,8.16m.69-32.11c-3.08,2.42-7.18.2-9-3,4.24-1.76,9.14-3.72,12.46-5.78-3.06,4.71-1,6.8-3.43,8.73"/></g><g id="g3303"><path id="path3305" class="cls-1" d="M351.88,221.57a9.53,9.53,0,1,0,9.55-9.54,9.55,9.55,0,0,0-9.55,9.54m2.44,0a7.09,7.09,0,1,1,7.11,7.1,7.1,7.1,0,0,1-7.11-7.1"/></g><g id="g3307"><path id="path3309" class="cls-1" d="M316.33,230.36A5.54,5.54,0,0,0,314,233.9a5.64,5.64,0,0,0,1.47,4.77,8.69,8.69,0,0,0,10.14,1.83,5.62,5.62,0,0,0,3-4c.61-3.32-2.2-6.6-6.24-7.35a8.14,8.14,0,0,0-6.05,1.18m4.32,8.49c-2.73-.5-4.64-2.53-4.28-4.52a3.18,3.18,0,0,1,1.35-2,5.8,5.8,0,0,1,4.23-.76c2.46.43,4.31,2.24,4.31,4,0,.16,0,.32,0,.48-.37,2-2.87,3.22-5.58,2.74"/></g><g id="g3311"><path id="path3313" class="cls-1" d="M263.86,96.53c-3,2.3-3.83,6.17-1.94,8.63h0c1.9,2.44,5.85,2.56,8.81.26a7.42,7.42,0,0,0,2.9-4.84,5.08,5.08,0,0,0-1-3.77,5,5,0,0,0-3.38-1.88,7.42,7.42,0,0,0-5.43,1.6m-.52,5.58a4.87,4.87,0,0,1,2-3.65A5,5,0,0,1,269,97.35a2.52,2.52,0,0,1,1.77,1,2.64,2.64,0,0,1,.48,2,5,5,0,0,1-2,3.22c-1.86,1.44-4.33,1.52-5.41.17a2.56,2.56,0,0,1-.49-1.56"/></g><g id="g3315"><path id="path3317" class="cls-1" d="M305.14,214.51a8.27,8.27,0,0,0-2.32,5.7v.2A8.06,8.06,0,0,0,305,226a5.47,5.47,0,0,0,3.84,1.76,5.61,5.61,0,0,0,3.93-1.61,8.25,8.25,0,0,0,2.33-5.72,8.45,8.45,0,0,0-1.6-5.19,5.71,5.71,0,0,0-4.37-2.39,5.62,5.62,0,0,0-3.94,1.63m3.71,10.82h0a3,3,0,0,1-2.13-1,5.78,5.78,0,0,1-1.43-4.08,5.57,5.57,0,0,1,1.58-4,3,3,0,0,1,2.19-.95c2,0,3.62,2.33,3.56,5.09a5.68,5.68,0,0,1-1.59,4,3,3,0,0,1-2.16.91m-.06,2.46h0Z"/></g><g id="g3319"><path id="path3321" class="cls-1" d="M258.52,137.44a5.63,5.63,0,0,0-3.2,2.78c-1.45,3.05.37,7,4.06,8.74a8.13,8.13,0,0,0,6.16.49,5.47,5.47,0,0,0,3.2-2.78,5.54,5.54,0,0,0,.16-4.24,8.57,8.57,0,0,0-10.38-5m1.91,9.33c-2.49-1.2-3.78-3.66-2.9-5.49a3,3,0,0,1,1.8-1.53,5.66,5.66,0,0,1,4.29.38,5.84,5.84,0,0,1,3,3.11,3.11,3.11,0,0,1-.06,2.39,3.15,3.15,0,0,1-1.81,1.52,5.79,5.79,0,0,1-4.3-.38"/></g><g id="g3323"><path id="path3325" class="cls-1" d="M358.64,127.64c3.1,8.51,9.26,11.59,14,9.39-10.52-1.23-2-19.23-15.53-19.23a9.52,9.52,0,0,0-2.18.24c-2.3-2.44-4.92-3.45-8.8-3.45-5.74,0-15.59,5.54-15.59,17,0,24.6,28.54,26.78,28.54,48.53a10,10,0,0,1-10.16,10.31c-4.8,0-8.66-5.4-12.69-13.85-1.94-4-6.08-9.52-10.48-15.26a7.61,7.61,0,0,0,4.23,1.5,5.42,5.42,0,0,0,4-1.45,5.49,5.49,0,0,0,1.67-3.86v-.22a8.26,8.26,0,0,0-2.31-5.54,8.15,8.15,0,0,0-5.6-2.65,5.32,5.32,0,0,0-5.63,5.3v.22a7.05,7.05,0,0,0,.46,2.51c-6.15-8-11.86-15.91-11.86-20.24,0-3.81,2.63-7.16,5.87-11.19l1.11.63.86-1c1.15-1.26,3.54-3.88,8.47-9.17l.29-.32,0,0,1.19-1.25-3.06-2.47a39.23,39.23,0,0,0,2.05-6c.95,4,3,6.47,5.77,5.67-1.85-4.09,1.88-9.56-.57-19.56,2.33,3.86,5.69,5.9,8.11,5.19-6.32-5.62,1.89-13.45-6.36-25.59,2.71.92,4.49.39,5.68-.95-7.52-1.05-4.09-10.66-17.28-14.08,3.29-.58,5.21-2.5,4.72-4.24-3.48,2.52-6.53-4.68-18-4.5-.69-4.28-4.65-8.78-9.14-10.95a14.86,14.86,0,0,1-.81,8.78L262.33,9.29c-1.08-1-1.69-1.27-2-.89s-.27,1,.43,1.8l32,40.13c-2.41.84-4.77,1.85-7.25,2.75a4.36,4.36,0,0,0-2.78,4.15,67.15,67.15,0,0,0-13.72,9c-2,1.8-3.54,2.22-1.81,6.26.67,1.53-1.38,5.32,3.25,2.54,3-1.82,9.92-5.62,10.94-3.22.54,1.25-2.86,2.86-5.2,3.75s-4.86,2.71-4.49,3.61,2.21-.06,2.33.89a2.1,2.1,0,0,0,1.81,2c.93,0,2.13-2,2.88-1.3s-.37,5-1.12,6.14a7.25,7.25,0,0,0,6.05-6.59c.08-2.71.83-3.36,1.38-3.73s1.21,2.88.47,4.83c1.91-.41,3.9-2.93,3.63-7.58a5.2,5.2,0,0,1,2.68-1.35c1.22,0,3.63,3.35,7.07,3.35,6.32,0,9.85-5.14,10.21-7.54a7,7,0,0,0-.89-5.28,8.76,8.76,0,0,1,3,6.82c0,9-15.84,13.2-22.35,19.41-.25.21-.47.44-.71.67L280.65,87l-.49,1.64c0,.1-.1.39-.44,1.41-.78,2.56-2.4,7.87-3.39,10.93,0,0-.4,1.22-.4,1.22l.67.39c-4.43,5.87-8,12.45-8.77,19.21a66.46,66.46,0,0,0-5.42-5,9.06,9.06,0,0,0,.4-2.06,7.37,7.37,0,0,0-1.7-5.25,5,5,0,0,0-3.43-1.73,5,5,0,0,0-3.62,1.34,4.35,4.35,0,0,0-.65.7l-.79-.63a61.33,61.33,0,0,1-7.34-6.16,3.76,3.76,0,0,0-3.24-1.34c-.63,0-2.2-.07-3.3-.07s-1.74.85-3,2c-.59.53-2.3,1.86-4.22,3.33.91.93,1.82,1.89,2.7,2.88.47.54.95,1.11,1.41,1.67l1.3-1a4,4,0,0,1,6,1.33c.68,1,6.69,8.93,11.68,14.43-.55.19-1.08.39-1.57.59-2.14.89-7,.71-9.08.54s-2.56-.71-4,1.58a28.19,28.19,0,0,1-2,2.76c-.72.88-1.28,1.87.24,4.43,2.2,3.72,7.65,13.51,9.46,17.93s3.95,5.12,7.41,6.54,9.4,4.83,10.1,5.61l.23-3.38c-1-1-4.34-2.28-5.59-2.73s-1.59-1-.08-1,5.67,1.49,8.6,2.69c-.88-3.32-4-6.95-5.93-9-2.51-.72-5.05-.72-6.07.07a1.38,1.38,0,0,1-1.42,1.58,1.32,1.32,0,0,1-1.33-1.74c.32-1,1.82-1.34,1.49-3.23s-2.67-2.21-4.18-2.38c-2.12-3.07-4.58-7.56-5.68-9.39s-.44-2.85.32-3.47c1.82-1.5,5.6.79,13.17,1.27,2.62.16,6,.33,9.37.49,1,8.79,4.51,17.16,16.75,20.21,6,1.48,12.13,5.87,14.25,11.62-24.43-.43-28.26,9.1-28.26,18.11,0,10.22,8.6,9.65,8.6,17.32,0,6.69-20.54,9.45-26.74,10.37-5.26.78-8.26,1.94-10.79,4.48s-5.07,5-9.67,9.55a15.65,15.65,0,0,0,3.91.35l3.47-4.5c1-1.5,1.73-2.76,2.42-2.64s.22,1.26-.59,2.87l-2.86,4.82c12.06.81,12.85-3.66,12.85-5.51s-3-3.09-1.25-4.25,3.2-.35,4.59,1.26,1.83,3,5.16,1.73c0,0,26.28-10.91,29.6-12.42,3-1.35,2.13-2.65.35-4.13-2-1.61-2.29-4.25-2.29-7,0-8,4.79-10.42,13.34-10.26a31.32,31.32,0,0,0-.27,3.84c0,12.42,18.76,24.56,23.85,24.56,2.25,0,5.31-1.68,5.5,5.81.14,5.51,1.24,9.4.26,15.76s-2.83,7.34-6.63,10-7.43,11.09-9,12.87c1.69,1.11,3.52,1.26,4.94-2.84,1.16-3.39,2.51-5.81,4-6.62-1.48,3.73-2.58,9.21-3.28,10.86,4.8.84,12.56-3.53,12.56-6.92s-2.68-3.12-2.68-5.37a2.6,2.6,0,0,1,2.68-2.12,3.92,3.92,0,0,1,3.53,2.25c2.12-1.13,3.46-3.24,3.39-8.19,0-1.93-.11-4-.21-6a5,5,0,0,0,.43.79,5.55,5.55,0,0,0,4.33,2.44,8.33,8.33,0,0,0,5.24-1.42,8.1,8.1,0,0,0,3.58-5,5.53,5.53,0,0,0,.14-1.2,5.27,5.27,0,0,0-.87-2.95,5.5,5.5,0,0,0-3.52-2.33,8.57,8.57,0,0,0-9.53,5.92c-.39-6.76-.88-13.14-.69-15.71.28-3.8.43-5.49-.86-6s-2.67,1.55-4.49,1.55-7.36-5.09-7.36-10.45,5.8-12.3,5.51-19.65c-.1-2.29,1.34-3.49,2.25-1.4a33.37,33.37,0,0,0,5.25,8.68c-1.53,9.25,8.62,18.26,17,11.58-4.14.6-7-3.07-8.8-6.77a12.44,12.44,0,0,0,2.24.2c.42,0,.84,0,1.25,0,2.93,3.62,12.25,3.32,14.66-5.69a9.53,9.53,0,0,1-7.41,3c3.51-2.73,5.33-7.19,5.33-12,0-23.44-28.4-26.18-28.4-47.52,0-7.91,6.92-13,11.71-13a7.13,7.13,0,0,1,4.41,1.42,10.68,10.68,0,0,0-2.66,8.15c.75,16.85,28.24,16,28.6,24.11,3.08-12.21-17.42-8.43-18.16-24.88M285.48,63c1.34-2.54,0-6.42,4.65-6.42,2.28,0,4.32,2.29,7.08,3.18A28.08,28.08,0,0,0,285.48,63m-25.12,51.65a4.93,4.93,0,0,1-1.47,3.37,2.58,2.58,0,0,1-1.82.71c-1.59-.09-2.84-1.92-2.84-4.08,0-.11,0-.22,0-.33a4.76,4.76,0,0,1,1.45-3.35,2.56,2.56,0,0,1,1.85-.71,2.6,2.6,0,0,1,1.75.91,4.86,4.86,0,0,1,1.07,3.48M341.55,233a5.86,5.86,0,0,1,2.54-3.5,5.76,5.76,0,0,1,4.21-1,3.19,3.19,0,0,1,2,1.29h0a3,3,0,0,1,.38,2.31,5.79,5.79,0,0,1-2.54,3.5c-2.31,1.51-5.09,1.36-6.2-.32a3.11,3.11,0,0,1-.39-2.33m-17.06-78.55a3,3,0,0,1,.9-2.17,3,3,0,0,1,2.23-.79,6.1,6.1,0,0,1,5.54,5.9,3,3,0,0,1-.91,2.15v0a3.09,3.09,0,0,1-2.22.77,5.66,5.66,0,0,1-3.87-1.91,5.73,5.73,0,0,1-1.66-4m-46.64-53c1.33-4.14,3.84-12.34,3.84-12.34L286,90.8a14.86,14.86,0,0,0-4.14,3,4.43,4.43,0,0,0,3.92-.29l-1.73,4.35c-.39-.7-1.61-2.27-2.83-2.53-.89,3.49,1.3,4.79,2.9,5.61,2.63,1.35,4.35,1.57,5.08.36.83-1.5-.9-3.59-3.12-2.65-.23-2.28,1-3.48,2.53-3.48,1.2,0,2.15,1.08,2.47,2.55C291,94,292.6,91.11,296,90.05c1.24,3.59.22,6-2.47,8.6,1.42-.57,3-.48,3.69.51.83,1.25.53,3-1.48,4-.46-2.38-3.2-2.57-4-1s.41,3,2.84,4.32c2.81,1.56,5.07.64,6.58-1.82a5.11,5.11,0,0,0-4,.82L300,100.1a5.57,5.57,0,0,0,1.82,3.17c.43-1.21,1.06-3.33.17-5.24l6.2,3.58a7,7,0,0,0-4.42,2.78,5.61,5.61,0,0,0,3.64,0l-3.23,5.19a5.16,5.16,0,0,0-1.31-3.91c-1.37,2.54-1,5,1.72,6.61,2.4,1.44,4.23,1.74,5.15.31a2.18,2.18,0,0,0-2.87-3c-.09-2.28,1.24-3.4,2.73-3.31,1.21.08,2.08,1.45,2.31,2.94.88-3.62,2.48-5.73,6.19-6.44.78,3.49-.87,6.36-4.15,8.08,1.45-.47,2.87-.18,3.46.86.75,1.3.34,3-1.75,3.94-.29-2.39-3-2.86-3.85-1.39-.69,1.25.36,2.63,2.85,4.24,1.52,1,3.72,2.22,6.32-.29-.85-1-2.83-1.21-3.61-1.21l2.88-3.67a4.53,4.53,0,0,0,1.71,3.55,14.57,14.57,0,0,0,.48-5.06l3.63,2.9s-5.85,6.27-8.76,9.5Zm38.5,97.16c-1.57,2.2-4.23,3-6,1.77s-1.88-4-.32-6.21,4.21-3,5.95-1.78,1.88,4,.33,6.22m11.22-17.74c-1.56,2.2-4.23,3-6,1.75s-1.86-4-.3-6.21,4.23-3,6-1.76,1.86,4,.3,6.22"/></g></g></svg>